<?xml version="1.0" encoding="UTF-8" standalone="no"?>
<svg
   xmlns:dc="http://purl.org/dc/elements/1.1/"
   xmlns:cc="http://creativecommons.org/ns#"
   xmlns:rdf="http://www.w3.org/1999/02/22-rdf-syntax-ns#"
   xmlns:svg="http://www.w3.org/2000/svg"
   xmlns="http://www.w3.org/2000/svg"
   xmlns:sodipodi="http://sodipodi.sourceforge.net/DTD/sodipodi-0.dtd"
   xmlns:inkscape="http://www.inkscape.org/namespaces/inkscape"
   version="1.1"
   width="200"
   height="200"
   id="svg23195"
   sodipodi:docname="NRSE_half.svg"
   inkscape:export-filename="/home/samumantha/Documents/NRSE_logo/NRSE_half_large_transparent_outline.png"
   inkscape:export-xdpi="300"
   inkscape:export-ydpi="300"
   inkscape:version="0.92.5 (2060ec1f9f, 2020-04-08)"
   style="shape-rendering:crispEdges">
  <metadata
     id="metadata23201">
    <rdf:RDF>
      <cc:Work
         rdf:about="">
        <dc:format>image/svg+xml</dc:format>
        <dc:type
           rdf:resource="http://purl.org/dc/dcmitype/StillImage" />
        <dc:title></dc:title>
      </cc:Work>
    </rdf:RDF>
  </metadata>
  <defs
     id="defs23199">
    <style
       id="style1833">.cls-1{fill:none;stroke:#000;stroke-linecap:round;stroke-miterlimit:11.34;stroke-width:5.67px;}</style>
  </defs>
  <sodipodi:namedview
     pagecolor="#ffffff"
     bordercolor="#666666"
     borderopacity="1"
     objecttolerance="10"
     gridtolerance="10"
     guidetolerance="10"
     inkscape:pageopacity="0"
     inkscape:pageshadow="2"
     inkscape:window-width="1848"
     inkscape:window-height="1016"
     id="namedview23197"
     showgrid="false"
     inkscape:zoom="2.2871081"
     inkscape:cx="86.436768"
     inkscape:cy="84.352658"
     inkscape:window-x="72"
     inkscape:window-y="27"
     inkscape:window-maximized="1"
     inkscape:current-layer="layer1" />
  <g
     inkscape:groupmode="layer"
     id="layer2"
     inkscape:label="Layer 2"
     style="display:inline" />
  <g
     inkscape:groupmode="layer"
     id="layer1"
     inkscape:label="Layer 1"
     style="display:inline">
    <path
       style="fill:#740048;fill-opacity:1;stroke:none;stroke-width:1.00157475;stroke-linecap:square;stroke-miterlimit:4;stroke-dasharray:none;stroke-opacity:1"
       d="M 97 20.884766 L 97 23.884766 L 94 23.884766 L 94 26.884766 L 91 26.884766 L 91 32.884766 L 97 32.884766 L 97 29.884766 L 103 29.884766 L 103 32.884766 L 109 32.884766 L 109 26.884766 L 106 26.884766 L 106 23.884766 L 103 23.884766 L 103 20.884766 L 97 20.884766 z M 103 32.884766 L 97 32.884766 L 97 47.884766 L 94 47.884766 L 94 44.884766 L 91 44.884766 L 91 41.884766 L 88 41.884766 L 88 38.884766 L 85 38.884766 L 85 35.884766 L 79 35.884766 L 79 41.884766 L 82 41.884766 L 82 44.884766 L 85 44.884766 L 85 47.884766 L 88 47.884766 L 88 50.884766 L 91 50.884766 L 91 53.884766 L 94 53.884766 L 94 56.884766 L 97 56.884766 L 97 62.884766 L 94 62.884766 L 94 59.884766 L 91 59.884766 L 91 56.884766 L 85 56.884766 L 85 62.884766 L 88 62.884766 L 88 65.884766 L 91 65.884766 L 91 68.884766 L 94 68.884766 L 94 71.884766 L 97 71.884766 L 97 84.884766 L 94 84.884766 L 94 81.884766 L 91 81.884766 L 91 78.884766 L 88 78.884766 L 88 75.884766 L 85 75.884766 L 85 72.884766 L 82 72.884766 L 82 69.884766 L 79 69.884766 L 79 66.884766 L 76 66.884766 L 76 63.884766 L 73 63.884766 L 73 60.884766 L 70 60.884766 L 70 57.884766 L 73 57.884766 L 73 51.884766 L 67 51.884766 L 67 54.884766 L 64 54.884766 L 64 51.884766 L 58 51.884766 L 58 57.884766 L 61 57.884766 L 61 60.884766 L 58 60.884766 L 58 66.884766 L 64 66.884766 L 64 63.884766 L 67 63.884766 L 67 66.884766 L 70 66.884766 L 70 69.884766 L 73 69.884766 L 73 72.884766 L 76 72.884766 L 76 75.884766 L 79 75.884766 L 79 78.884766 L 82 78.884766 L 82 81.884766 L 85 81.884766 L 85 84.884766 L 88 84.884766 L 88 87.884766 L 91 87.884766 L 91 90.884766 L 79 90.884766 L 79 87.884766 L 76 87.884766 L 76 84.884766 L 73 84.884766 L 73 81.884766 L 70 81.884766 L 70 78.884766 L 64 78.884766 L 64 84.884766 L 67 84.884766 L 67 87.884766 L 70 87.884766 L 70 90.884766 L 64 90.884766 L 64 87.884766 L 62 87.884766 L 62 84.884766 L 59 84.884766 L 59 81.884766 L 56 81.884766 L 56 78.884766 L 53 78.884766 L 53 75.884766 L 50 75.884766 L 50 72.884766 L 44 72.884766 L 44 78.884766 L 47 78.884766 L 47 81.884766 L 50 81.884766 L 50 84.884766 L 53 84.884766 L 53 87.884766 L 56 87.884766 L 56 90.884766 L 42 90.884766 L 42 84.884766 L 36 84.884766 L 36 87.884766 L 33 87.884766 L 33 90.884766 L 30 90.884766 L 30 96.884766 L 33 96.884766 L 42 96.884766 L 56 96.884766 L 64 96.884766 L 70 96.884766 L 79 96.884766 L 91 96.884766 L 109 96.884766 L 121 96.884766 L 130 96.884766 L 136 96.884766 L 144 96.884766 L 158 96.884766 L 167 96.884766 L 170 96.884766 L 170 90.884766 L 167 90.884766 L 167 87.884766 L 164 87.884766 L 164 84.884766 L 158 84.884766 L 158 90.884766 L 144 90.884766 L 144 87.884766 L 147 87.884766 L 147 84.884766 L 150 84.884766 L 150 81.884766 L 153 81.884766 L 153 78.884766 L 156 78.884766 L 156 72.884766 L 150 72.884766 L 150 75.884766 L 147 75.884766 L 147 78.884766 L 144 78.884766 L 144 81.884766 L 141 81.884766 L 141 84.884766 L 138 84.884766 L 138 87.884766 L 136 87.884766 L 136 90.884766 L 130 90.884766 L 130 87.884766 L 133 87.884766 L 133 84.884766 L 136 84.884766 L 136 78.884766 L 130 78.884766 L 130 81.884766 L 127 81.884766 L 127 84.884766 L 124 84.884766 L 124 87.884766 L 121 87.884766 L 121 90.884766 L 109 90.884766 L 109 87.884766 L 112 87.884766 L 112 84.884766 L 115 84.884766 L 115 81.884766 L 118 81.884766 L 118 78.884766 L 121 78.884766 L 121 75.884766 L 124 75.884766 L 124 72.884766 L 127 72.884766 L 127 69.884766 L 130 69.884766 L 130 66.884766 L 133 66.884766 L 133 63.884766 L 136 63.884766 L 136 66.884766 L 142 66.884766 L 142 60.884766 L 139 60.884766 L 139 57.884766 L 142 57.884766 L 142 51.884766 L 136 51.884766 L 136 54.884766 L 133 54.884766 L 133 51.884766 L 127 51.884766 L 127 57.884766 L 130 57.884766 L 130 60.884766 L 127 60.884766 L 127 63.884766 L 124 63.884766 L 124 66.884766 L 121 66.884766 L 121 69.884766 L 118 69.884766 L 118 72.884766 L 115 72.884766 L 115 75.884766 L 112 75.884766 L 112 78.884766 L 109 78.884766 L 109 81.884766 L 106 81.884766 L 106 84.884766 L 103 84.884766 L 103 71.884766 L 106 71.884766 L 106 68.884766 L 109 68.884766 L 109 65.884766 L 112 65.884766 L 112 62.884766 L 115 62.884766 L 115 56.884766 L 109 56.884766 L 109 59.884766 L 106 59.884766 L 106 62.884766 L 103 62.884766 L 103 56.884766 L 106 56.884766 L 106 53.884766 L 109 53.884766 L 109 50.884766 L 112 50.884766 L 112 47.884766 L 115 47.884766 L 115 44.884766 L 118 44.884766 L 118 41.884766 L 121 41.884766 L 121 35.884766 L 115 35.884766 L 115 38.884766 L 112 38.884766 L 112 41.884766 L 109 41.884766 L 109 44.884766 L 106 44.884766 L 106 47.884766 L 103 47.884766 L 103 32.884766 z "
       id="rect815" />
    <path
       d="m 268,27 v 48 h 6 V 44 h 3 v 3 h 3 v 3 h 3 v 3 h 3 v 3 h 3 v 3 h 3 v 17 h 6 V 27 h -6 v 23 h -3 v -3 h -3 v -3 h -3 v -3 h -3 v -3 h -3 v -3 h -3 v -8 z m 153,0 v 18 h -3 v -3 h -3 v -3 h -12 v 3 h -3 v 3 h -3 v 24 h 3 v 3 h 3 v 3 h 12 v -3 h 3 v -3 h 3 v 6 h 6 V 27 Z m 32,0 v 6 h 6 V 27 Z M 317,39 v 3 h -3 v 3 h -3 v 24 h 3 v 3 h 3 v 3 h 18 v -3 h 3 v -3 h 3 V 45 h -3 v -3 h -3 v -3 z m 37,0 v 6 h 6 v 24 h -6 v 6 h 24 V 69 H 366 V 51 h 6 v -3 h 3 v -3 h 9 v -6 h -12 v 3 h -3 v 3 h -3 v -6 z m 87,0 v 6 h 12 v 24 h -12 v 6 h 30 V 69 H 459 V 39 Z m 49,0 v 3 h -3 v 3 h -3 v 24 h 3 v 3 h 3 v 3 h 18 v -3 h 3 v -3 h 3 v -6 h -6 v 3 h -3 v 3 h -12 v -3 h -3 V 48 h 3 v -3 h 12 v 3 h 3 v 3 h 6 v -6 h -3 v -3 h -3 v -3 z m -170,6 h 12 v 3 h 3 v 18 h -3 v 3 h -12 v -3 h -3 V 48 h 3 z m 86,0 h 6 v 3 h 3 v 3 h 6 v 12 h -6 v 3 h -3 v 3 h -6 v -3 h -3 V 48 h 3 z"
       id="rect815-1"
       inkscape:connector-curvature="0"
       style="display:inline;fill:#740048;fill-opacity:1;stroke:none;stroke-width:1.76466298;stroke-opacity:1"
       transform="matrix(0.56732299,0,0,0.56603853,-122.15592,88.159602)"
       sodipodi:nodetypes="ccccccccccccccccccccccccccccccccccccccccccccccccccccccccccccccccccccccccccccccccccccccccccccccccccccccccccccccccccccccccccccccccccccccccccccccccccccccccccccccccccccccccccccccccccccccccc" />
    <path
       d="m 268,92 v 48 h 6 v -18 h 15 v 3 h 3 v 15 h 6 v -18 h -3 v -6 h 3 V 98 h -3 v -3 h -3 v -3 z m 49,0 v 3 h -3 v 3 h -3 v 12 h 3 v 3 h 3 v 3 h 15 v 3 h 3 v 12 h -3 v 3 h -12 v -3 h -3 v -3 h -6 v 6 h 3 v 3 h 3 v 3 h 18 v -3 h 3 v -3 h 3 v -18 h -3 v -3 h -3 v -3 h -15 v -3 h -3 v -6 h 3 v -3 h 12 v 3 h 3 v 3 h 6 v -6 h -3 v -3 h -3 v -3 z m 43,0 v 3 h -3 v 3 h -3 v 36 h 3 v 3 h 3 v 3 h 24 v -6 h -21 v -3 h -3 v -15 h 17 v -6 h -17 v -9 h 3 v -3 h 21 v -6 z m -86,6 h 15 v 3 h 3 v 12 h -3 v 3 h -15 z"
       id="rect815-1-5"
       inkscape:connector-curvature="0"
       style="display:inline;fill:#740048;fill-opacity:1;stroke:none;stroke-width:1.76466298;stroke-opacity:1"
       transform="matrix(0.56732299,0,0,0.56603853,-85.279923,86.22632)"
       sodipodi:nodetypes="cccccccccccccccccccccccccccccccccccccccccccccccccccccccccccccccccccccccccccccccccccccccccccccccccccccccccc" />
  </g>
</svg>
