<?xml version="1.0" encoding="UTF-8" standalone="no"?>
<svg
   xmlns:dc="http://purl.org/dc/elements/1.1/"
   xmlns:cc="http://creativecommons.org/ns#"
   xmlns:rdf="http://www.w3.org/1999/02/22-rdf-syntax-ns#"
   xmlns:svg="http://www.w3.org/2000/svg"
   xmlns="http://www.w3.org/2000/svg"
   xmlns:sodipodi="http://sodipodi.sourceforge.net/DTD/sodipodi-0.dtd"
   xmlns:inkscape="http://www.inkscape.org/namespaces/inkscape"
   version="1.0"
   width="1200"
   height="628"
   viewBox="0 0 12000 6280"
   preserveAspectRatio="xMidYMid meet"
   id="svg929"
   sodipodi:docname="NordicRSE_Background_image.svg"
   inkscape:version="0.92.5 (2060ec1f9f, 2020-04-08)"
   inkscape:export-filename="/home/swi/git/nordic-rse-materials/graphics/www/NordicRSE_TwitterCard.png"
   inkscape:export-xdpi="96"
   inkscape:export-ydpi="96">
  <metadata
     id="metadata935">
    <rdf:RDF>
      <cc:Work
         rdf:about="">
        <dc:format>image/svg+xml</dc:format>
        <dc:type
           rdf:resource="http://purl.org/dc/dcmitype/StillImage" />
        <dc:title></dc:title>
      </cc:Work>
    </rdf:RDF>
  </metadata>
  <defs
     id="defs933" />
  <sodipodi:namedview
     pagecolor="#ffffff"
     bordercolor="#666666"
     borderopacity="1"
     objecttolerance="10"
     gridtolerance="10"
     guidetolerance="10"
     inkscape:pageopacity="0"
     inkscape:pageshadow="2"
     inkscape:window-width="1848"
     inkscape:window-height="1016"
     id="namedview931"
     showgrid="false"
     inkscape:zoom="0.84349969"
     inkscape:cx="585.79974"
     inkscape:cy="370.31224"
     inkscape:window-x="72"
     inkscape:window-y="27"
     inkscape:window-maximized="1"
     inkscape:current-layer="layer2"
     units="px"
     showborder="false" />
  <g
     inkscape:groupmode="layer"
     id="layer2"
     inkscape:label="Layer 3">
    <g
       id="layer102"
       style="display:inline;fill:#f2f2f2;stroke:none;stroke-width:0.95227748"
       transform="matrix(0.9940379,0,0,0.9886662,16119.306,6874.744)">
      <rect
         style="opacity:1;fill:#000000;fill-opacity:0.9859813;stroke:#000000;stroke-width:71.98317719;stroke-miterlimit:4;stroke-dasharray:none;stroke-dashoffset:0;stroke-opacity:1"
         id="rect1396"
         width="12000"
         height="6280"
         x="-16180"
         y="-6917.5581"
         inkscape:export-xdpi="96"
         inkscape:export-ydpi="96" />
    </g>
  </g>
  <g
     inkscape:groupmode="layer"
     id="layer4"
     inkscape:label="Layer 2"
     style="display:inline;opacity:0.422">
    <g
       id="g4606"
       transform="matrix(1.4206908,0,0,1.4206908,-8270.497,-1707.223)"
       style="stroke-width:22;stroke-miterlimit:4;stroke-dasharray:none">
      <path
         inkscape:export-ydpi="96"
         inkscape:export-xdpi="96"
         style="fill:none;fill-opacity:1;stroke:#bcb8b3;stroke-width:22;stroke-miterlimit:4;stroke-dasharray:none;stroke-opacity:1"
         id="is-4"
         d="m 7100.2361,2527.9063 c -5.9228,-1.8073 -132.2775,-57.8332 -138.2004,-61.4478 -7.8972,-5.4218 17.7685,-12.6511 23.6918,-19.8803 5.9224,-9.0362 0,-36.1457 9.8713,-32.5312 15.7942,5.422 5.9229,28.9168 15.7942,39.7604 1.9747,3.6148 3.9485,-9.0364 9.8713,-9.0364 15.7945,-1.8073 33.563,10.844 47.383,5.4219 61.2032,-21.6876 -19.7427,-41.5678 55.2802,-46.9897 13.82,0 27.6402,9.0368 41.4601,10.8438 9.8717,1.8073 -15.7944,-12.6509 -23.6916,-16.2655 -3.9485,0 -7.8972,0 -11.8455,0 -15.7944,-1.8074 -31.5886,1.8074 -45.4088,-3.6144 -9.8713,-5.4221 23.6915,3.6144 31.5886,-3.6145 3.9489,-3.6148 -15.7942,-5.4223 -13.8201,-10.844 0,-9.0365 7.8972,-16.2657 17.769,-19.8801 5.9226,-1.8074 15.7942,3.6144 23.6914,3.6144 13.82,-1.8073 29.6139,-3.6144 41.4601,-12.6507 5.9226,-3.6147 -15.7944,-1.8075 -21.7172,-5.4219 -5.9229,-1.8074 -55.2803,19.8799 -69.1002,18.0726 -9.8716,-1.8073 5.9228,-19.88 7.8969,-28.9164 0,-10.844 -7.8969,-19.88 -5.9228,-30.724 1.9749,-10.8436 23.6918,-18.0729 19.7429,-30.7239 -1.9748,-7.2292 -19.7429,3.6147 -27.6399,0 -5.9231,-1.8075 -3.9487,-16.2657 -9.8716,-12.6512 -1.9748,1.8074 5.9229,10.8439 1.9747,9.0367 -15.7939,-7.2293 -31.5885,-30.7243 -45.4084,-39.7605 -1.9749,-3.6141 -7.8972,-1.8075 -11.8462,-1.8075 -3.9482,0 -7.8969,5.4217 -9.8713,3.6145 -3.9484,-1.8075 -1.9749,-10.8437 -7.8971,-12.6509 -7.8972,-3.6146 -116.4829,-3.6146 -37.5114,-37.9532 21.7172,-9.0365 17.7687,9.0365 37.5114,19.8802 17.7684,9.0365 45.409,-14.4583 63.1773,-5.422 7.8975,3.6147 -13.82,18.0732 -5.9229,23.495 5.9229,5.4217 9.8714,-10.8438 17.7686,-12.6511 13.8201,-3.6147 29.6144,-10.8439 41.4601,-3.6147 7.8974,7.2293 -3.9484,21.6875 -1.9749,30.7239 0,5.4217 0,-9.0364 1.9749,-10.8436 9.8715,-10.8436 157.9433,77.7133 106.6116,0 -7.897,-10.8436 -27.6396,9.0364 -43.434,7.2289 -17.7687,-1.8074 -31.5891,-21.6872 -39.486,-36.1455 0,0 1.9747,-1.8075 3.9485,-3.6146 21.717,-14.4583 57.2545,-18.073 80.9459,-19.88 11.8458,0 25.6659,10.8435 33.5631,1.8075 15.7942,-12.6513 -59.2289,-7.2291 -57.2545,-27.1095 1.9749,-12.6508 39.4857,-7.2291 39.4857,-21.6876 -1.9749,-84.9423 -69.1001,9.0368 -73.0489,-7.2291 -1.9749,-10.8436 7.8975,-21.6873 3.9488,-30.7235 -1.9749,-3.6148 -7.897,7.2289 -11.8457,7.2289 -3.9487,0 3.9487,-9.0362 0,-9.0362 -13.82,3.6144 -13.82,25.3016 -23.6917,1.8073 -1.9748,-1.8073 1.9749,-9.0365 0,-9.0365 -7.8971,5.4217 -7.8971,18.0727 -17.7684,19.8799 -5.9228,0 -3.9483,-12.6507 -9.8714,-14.4582 -11.8461,-3.6145 -67.126,21.6874 -69.1002,-7.2289 0,-5.4221 9.8714,-5.4221 9.8714,-10.844 -5.9228,-16.2656 -53.3058,-14.4582 -49.3573,-32.5313 15.7941,-75.906 63.1773,32.5313 73.0486,27.1094 27.6403,-16.2656 -31.5885,-68.6768 7.8974,-68.6768 35.5371,-1.8075 11.8458,121.0883 57.2546,65.0624 5.9226,-7.2293 -23.6914,-16.2657 -15.7944,-21.6875 7.897,-9.0368 29.6142,10.8437 39.4858,1.8073 5.9225,-9.0364 -25.6661,0 -33.5632,-7.229 -11.8457,-10.844 -15.7941,-27.1095 -17.7685,-41.5679 -7.8972,-61.4477 37.5113,56.0261 55.2799,37.9531 5.9231,-5.4217 -61.2028,-54.2186 -31.5888,-66.8695 13.8202,-5.422 23.692,28.9164 37.5119,23.4946 7.8974,-5.4217 -37.5119,-63.2553 19.7428,-45.1823 47.383,16.2657 -5.9228,92.172 47.383,122.8958 0,1.8074 33.5629,-12.6508 35.5373,-48.797 0,-7.2293 -11.8457,-3.6142 -15.7942,-9.0363 -5.923,-5.4219 -27.64,-39.7601 -19.7431,-50.604 13.8201,-14.4585 41.4601,12.6509 61.2033,21.6874 5.9227,1.8073 -17.7688,-3.6145 -17.7688,-9.0365 -1.9749,-5.4217 9.8715,-3.6145 13.82,-5.4217 1.9747,-1.8075 1.9747,-5.422 0,-5.422 -25.666,1.8075 -23.6916,37.9532 -53.3057,-21.6875 -25.6661,-52.4114 29.6141,-12.6512 31.5885,-12.6512 0,0 1.9749,-1.8074 1.9749,-3.6142 0,-3.6146 -3.9487,-10.844 0,-9.0366 5.923,5.422 5.923,16.2656 13.8201,21.6876 7.8972,5.4219 21.7174,3.6144 29.6143,9.0362 19.743,14.4585 -9.8713,32.5314 -7.8969,41.5678 0,3.6145 9.8713,0 13.8195,1.8074 1.9749,1.8074 15.7945,12.6512 11.8457,19.8802 -3.9484,1.8075 -13.8195,0 -11.8457,3.6144 3.9491,7.2293 19.7432,5.422 19.7432,14.4583 1.9749,12.6512 -17.769,25.3022 -13.8201,37.9535 3.9487,10.8436 33.5629,3.6144 31.5888,14.4582 0,10.8437 -29.6146,-7.2291 -33.5628,1.8074 -1.9749,9.0363 88.8428,45.1819 -1.9749,57.8331 -15.7937,3.6146 -21.7168,-21.6876 -37.5111,-27.1094 -5.9229,-1.8075 1.9748,10.8438 5.9228,16.2657 3.9489,14.4583 21.7172,27.1092 17.7685,39.7604 -3.9483,14.4582 -33.5629,14.4582 -35.5371,28.9166 -3.9485,9.0364 23.6916,3.6147 25.6657,12.6511 3.9486,9.0365 -11.8456,18.0728 -15.7944,27.1095 -3.9484,10.8434 -17.7687,32.5307 -5.9226,34.3379 41.4602,7.2292 39.4858,-68.6766 65.1515,-81.3278 80.9459,-39.7602 25.6657,10.844 23.6916,18.073 -11.8458,45.1821 47.3828,-3.6146 51.3314,-7.229 25.6656,-25.302 15.7942,-97.5938 35.5373,-95.7866 69.0998,5.4217 7.897,84.9426 47.3828,113.8595 31.5887,25.3017 13.8202,-32.5314 21.717,-46.9897 1.9749,-9.0364 9.8717,-19.8802 19.7431,-23.4949 5.9231,-1.8073 13.8202,1.8075 21.7175,5.422 1.9747,1.8073 1.9747,7.2292 3.9482,7.2292 15.7944,-3.6144 31.5885,-23.4949 45.4086,-16.2656 13.8205,5.4219 11.8461,25.3018 13.8205,39.7603 0,9.0365 -11.8461,14.4582 -9.8718,23.4948 9.8718,45.1821 33.5632,-32.531 19.7431,34.3384 -5.9231,37.9532 -19.7431,18.0727 -9.8713,52.4114 15.7939,61.4479 15.7939,-117.4738 35.5368,-121.0883 51.3317,-12.651 39.4858,65.0624 43.4345,83.135 0,3.6146 0,-9.0362 3.9485,-10.8434 1.9748,-1.8075 9.8717,0 7.8974,-1.8075 -11.8459,-23.4945 3.9484,10.8436 3.9484,10.8436 1.9747,0 1.9747,-5.4219 3.9486,-7.2289 9.8713,-14.4582 29.6146,-39.7603 51.3314,-41.5676 21.7174,-1.8075 19.7431,39.7604 37.5114,50.6038 7.8974,3.6146 -3.9482,-16.2655 1.9749,-21.6872 11.8457,-12.6508 19.7431,16.2655 19.7431,16.2655 1.9746,3.6144 -1.9749,-9.0364 0,-12.6509 3.9482,-5.4218 13.82,-9.0363 15.7941,-16.2654 3.9487,-7.2293 0,-16.2658 0,-25.3022 1.9749,-10.8438 0,-25.3021 9.8713,-30.7238 13.8204,-5.422 27.6404,3.6142 41.4602,7.229 35.5375,7.2293 5.923,21.6874 9.8712,34.3385 3.9493,7.2292 15.7945,5.4217 19.743,10.8439 13.8203,27.1092 -59.2282,34.3382 5.9233,66.8694 7.897,3.6147 7.897,-16.2657 15.7944,-19.8799 7.8969,-3.6149 17.7683,3.6142 25.6657,0 17.7685,-5.4223 37.5114,-45.1823 63.1773,-1.8075 3.9485,7.2292 -17.7685,3.6147 -27.6403,5.4219 -29.6139,5.422 -41.46,1.8075 -61.2027,30.7239 -1.9749,3.6149 9.8713,3.6149 9.8713,7.2293 1.9749,5.4218 -9.8713,9.0365 -5.9228,10.8438 9.8713,7.2293 27.6403,1.8074 37.5116,9.0365 31.5885,21.6874 -43.435,61.4478 -47.3832,65.0623 -3.9487,1.8073 7.8972,-5.4217 13.82,-3.6145 13.8199,3.6145 27.6401,12.6511 39.4858,21.6874 1.9749,1.8073 -9.8714,1.8073 -9.8714,5.4218 0,5.4219 9.8714,10.8438 9.8714,16.2657 0,3.6144 -7.897,-1.8075 -9.8714,0 -13.82,7.229 -51.3316,21.6875 -37.5113,27.1094 17.7683,5.4217 33.5626,-34.3387 47.3827,-23.495 5.923,7.2291 11.8457,14.4585 19.7429,19.8803 3.9489,3.6147 11.8459,-3.6144 13.8202,1.8075 9.8713,16.2658 19.7428,46.9895 -3.9487,61.4477 -11.8457,7.2291 -29.6144,5.422 -41.4601,10.8437 -5.9226,3.6147 -13.8202,10.8439 -9.8713,14.4584 5.9231,5.4218 108.586,16.2655 27.64,59.6408 -17.7687,9.0364 -63.1775,-28.9168 -63.1775,-30.7243 -13.8198,-16.2654 63.1775,28.9167 43.4344,45.1825 -9.8713,7.2292 -25.6657,-18.073 -35.5375,-10.8439 -7.8969,5.4221 19.7432,10.8439 23.6917,19.8804 1.9749,3.6147 -7.897,7.2291 -11.8455,9.0364 -17.7687,7.2289 -41.4603,27.1091 -55.2802,14.4581 -9.8713,-9.0364 -7.8974,-45.1821 -17.7684,-36.1456 -9.8716,10.8438 21.7166,27.1092 13.8202,39.7602 -5.9231,10.8438 -31.5888,-1.8075 -41.4606,7.2292 -11.8457,9.0365 -3.9484,30.724 -13.8198,41.5677 -3.9487,5.4217 -15.7943,-5.4218 -21.7174,-3.6147 -13.8201,3.6147 -21.717,19.8802 -35.5373,21.6877 -11.8455,1.8073 -5.9226,-45.1824 -37.5111,-52.4117 -9.8714,-1.8073 1.9748,19.8805 -3.9488,28.9169 -1.9749,3.6145 -9.8716,-3.6147 -13.82,0 -1.9749,0 7.8974,5.4218 5.9228,5.4218 -53.306,9.0364 -23.6914,-3.6147 -73.0487,3.6144 -25.6657,3.6149 -47.3832,23.4947 -73.0486,32.5315 -3.949,1.8073 -11.8457,3.6143 -15.7944,1.8073 -13.8203,-5.4219 -17.7685,-25.3019 -31.5886,-25.3019 -11.8457,1.8073 -7.8972,25.3019 -17.7688,28.9164 -7.8969,1.8075 -9.8715,-12.6509 -17.7684,-16.2655 -11.846,-3.6145 -55.2803,-5.4219 -71.0746,-10.8436 -27.6401,-7.229 -29.6143,36.1459 -35.5371,41.5674 -13.8198,10.8439 -86.869,3.6147 -100.6887,-1.8073 -35.5373,-10.8438 -65.1518,-63.2552 -82.92,-79.5209 -25.6662,-19.8802 -47.3832,-3.6144 -61.2035,-39.7599 -1.9749,-9.0368 -11.8456,-19.8804 -7.8969,-28.9167 3.9485,-12.6512 41.4601,-18.073 29.6142,-23.495 -11.8458,-5.422 -21.7173,28.9167 -31.5884,21.6874 -11.8458,-9.0364 13.8199,-28.9167 5.9227,-41.5679 -3.9485,-7.2289 -13.8199,16.2661 -21.7171,12.6512 -13.8202,-7.2291 -13.8202,-25.3018 -25.6659,-34.3384 -5.9229,-5.4217 -13.82,-3.6145 -21.7172,-5.4217 z"
         inkscape:connector-curvature="0" />
      <path
         inkscape:export-ydpi="96"
         inkscape:export-xdpi="96"
         style="fill:none;fill-opacity:1;stroke:#d6d2ce;stroke-width:22;stroke-miterlimit:4;stroke-dasharray:none;stroke-opacity:1"
         id="fi-5"
         d="m 12132.473,1606.1558 v 3.6126 c -39.486,7.2289 -31.554,48.7654 -65.117,57.8022 -29.614,7.2292 -17.741,-30.7262 -51.304,3.6125 -3.948,5.422 0,14.4466 -1.973,21.6759 -1.974,1.8075 -23.678,39.7376 -23.678,41.5451 -5.923,14.4582 5.918,61.4078 7.893,74.0589 0,5.4217 -3.947,9.0288 -3.947,14.4506 0,10.8434 1.973,19.8629 3.947,30.7072 5.922,14.4582 19.731,25.2805 21.705,39.7388 9.872,63.2552 -7.88,19.8588 -31.572,39.7389 -27.639,25.3022 -1.968,32.4973 -9.866,63.221 -1.975,7.2292 -9.865,10.8339 -11.839,18.0633 0,1.8073 -25.65,-19.8686 -29.599,-21.6759 -5.922,-3.6147 -78.925,-27.0986 -84.848,-19.8696 -7.897,7.2294 -1.971,21.6722 -7.893,28.9012 -23.692,37.9532 -55.232,14.4476 -88.795,19.8693 -9.871,0 -19.728,5.4199 -27.625,3.6128 l -7.893,-5.419 c -3.948,-7.2293 -3.944,-18.0595 -7.893,-25.2884 -13.82,-21.6878 -59.184,-77.6649 -82.875,-90.3158 -51.332,-27.1094 -53.28,10.8225 -49.331,39.7391 l -11.839,37.9325 h 1.973 l -1.973,1.8054 7.893,9.0318 c -1.975,3.6142 -9.871,5.4159 0,10.8378 33.563,23.4945 90.749,66.8258 126.286,81.2842 41.46,16.2652 74.962,2.3897 112.474,36.7281 7.897,5.422 1.968,21.6737 9.866,25.2887 5.923,1.8073 9.864,-7.2263 13.812,-5.4192 15.794,5.422 21.7,23.4765 33.545,34.32 3.949,3.6147 15.787,3.6098 13.813,9.0318 -21.717,37.9529 1.97,39.7155 7.893,83.0902 1.975,7.2293 -5.92,14.4467 -5.92,21.6757 l -1.973,1.8057 c 0,18.0728 29.594,3.6084 37.492,10.8377 25.665,18.0729 -15.793,43.342 -3.947,61.4146 11.846,25.3021 59.194,48.755 63.143,77.6715 1.975,21.6877 -15.787,90.3108 -13.813,99.3472 17.769,57.8332 65.762,86.0756 89.453,133.0652 13.944,6.5076 18.078,-7.398 32.23,-0.6014 5.913,13.6154 10.517,23.4784 24.336,30.7073 8.125,-3.8404 15.121,-3.6151 28.941,0 5.923,0 13.153,5.4169 17.101,9.0315 11.846,5.4219 11.833,-16.2615 23.679,1.8056 21.717,41.5675 7.888,73.4467 15.785,91.5197 5.923,16.2657 14.289,6.207 36.176,37.3304 -5.514,11.7788 -16.338,2.9725 -28.283,8.4295 0.54,2.5545 2.005,4.4245 7.236,6.0211 13.953,4.2576 15.287,10.2535 12.497,20.4715 -2.708,9.9129 -19.095,-6.3573 -36.176,-17.461 -7.603,4.2914 -14.812,8.8988 -19.732,15.6548 -3.949,3.6147 1.973,12.6421 -1.973,16.2568 -3.948,3.6146 -13.811,-5.4258 -15.786,-1.8055 -5.923,12.651 -7.893,28.8931 -7.893,43.3514 0,9.0365 -3.284,18.6603 -7.235,27.6968 -1.974,16.2657 -16.441,22.8719 -20.39,37.3304 -3.948,10.8438 -5.257,31.9068 -9.208,40.9432 -9.871,19.88 -27.624,12.0273 -29.598,39.1367 -0.111,12.2339 9.866,13.2422 9.866,20.4715 -0.189,1.1107 -0.418,1.9743 -0.657,3.0107 -10.112,-0.9769 -20.108,-1.7018 -24.995,-1.2043 -6.227,0.6345 -1.491,13.9298 3.947,28.901 -10.709,6.5362 -23.108,11.325 -32.23,22.2779 -1.974,12.651 -21.046,54.7905 -23.02,56.5978 -7.898,0 -15.124,-21.6788 -23.022,-16.2569 -17.768,14.4585 11.192,48.7645 -6.577,59.6085 -5.923,3.6144 -17.76,-9.0382 -15.786,-1.8056 0,9.0366 10.522,7.8229 14.471,16.8591 -7.178,-3.2014 -16.081,-3.8786 -21.706,-3.0105 -2.5,0.3841 -4.796,0.7424 -5.262,1.8055 -1.526,3.49 17.513,14.6554 34.203,28.299 2.756,17.4651 -9.633,-0.014 -23.679,16.2566 -16.155,5.5263 -11.179,23.4821 -19.074,23.4821 -11.846,-1.8074 -6.573,-15.0516 -16.444,-16.859 -18.585,7.4552 -22.585,12.4129 -34.203,11.44 -13.914,47.9451 30.917,12.6287 26.968,41.5453 -0.288,1.3229 -1.262,2.8246 -1.973,4.2148 -16.226,-2.7846 -20.39,-9.6338 -20.39,-9.6338 l -5.262,7.8273 1.314,27.6969 c -12.642,11.1227 -25.304,22.3861 -26.309,32.5136 -10.802,103.1027 4.911,23.878 19.074,51.1789 1.044,15.4311 -15.136,24.6813 0.657,33.7178 1.975,1.8075 5.919,-7.2262 7.893,-5.419 3.949,5.4219 -1.979,18.0623 5.92,19.8696 3.949,1.8074 -3.945,-16.2568 1.973,-16.2568 5.922,-1.8075 7.891,5.4159 9.866,10.8378 11.845,28.9166 -1.977,75.8592 3.946,86.703 3.949,7.2293 11.178,12.0392 17.101,17.461 7.898,9.0366 9.205,13.2417 15.128,22.2779 1.975,3.6148 3.288,11.4381 5.262,15.0525 3.949,5.4219 13.81,1.2018 17.759,4.817 1.975,1.8074 -7.893,0 -7.893,1.8055 -1.974,3.6147 1.973,7.2234 3.947,10.8378 9.872,10.8438 27.626,20.4645 25.652,33.1157 -1.975,10.8437 -30.255,-10.838 -32.23,0 -3.948,14.4584 20.388,31.905 24.337,44.556 1.975,5.4219 -7.894,10.8338 -5.92,18.0631 1.975,3.6144 13.813,3.6094 13.813,9.0315 -1.975,23.4948 -21.71,-1.817 -13.813,18.0633 1.975,7.2293 11.841,12.6414 9.866,18.0631 -1.975,7.2291 -21.704,-1.8094 -23.678,3.6127 -1.975,46.9893 19.723,52.3722 35.518,72.2523 3.948,3.6146 -15.788,7.2224 -11.84,12.6443 1.975,9.0365 5.917,16.2529 11.84,23.482 49.015,51.5598 9.843,-1.8016 51.304,-9.0315 7.897,0 -7.898,19.8666 0,25.2883 11.845,5.4219 26.302,3.0105 40.122,3.0105 11.845,1.8075 17.095,13.2463 26.967,13.2463 9.871,0 13.808,-10.8378 21.705,-10.8378 3.949,-1.8074 0,5.4179 1.973,7.2251 5.627,1.7171 9.68,0.5039 15.128,-1.2036 -2.006,3.9515 -3.867,8.4233 -5.262,12.0422 -5.581,14.4755 -7.557,16.1108 -1.972,18.6652 5.581,2.5546 -0.911,0.072 11.181,-8.4294 2.593,-1.8267 4.828,-4.9775 7.235,-7.8275 -0.188,18.8846 -16.446,23.331 -10.524,24.6864 2.854,0 23.865,-13.8253 39.465,-24.0842 -4.651,8.5151 -8.955,12.8511 -21.048,16.257 -12.093,3.4059 -16.124,14.6393 -21.705,7.8272 -5.582,-6.8119 -13.587,1.7209 -9.866,10.2358 1.861,4.2577 7.962,5.2061 12.497,5.419 -5.566,1.7613 -7.351,7.9578 -2.631,10.8378 5.581,3.4062 -0.838,5.1693 -9.209,6.0212 -8.371,0.8517 0.724,15.1556 7.235,16.8589 6.512,1.7036 26.602,-5.8323 36.834,-12.6443 10.232,-6.8119 14.517,-17.4788 9.866,-27.6969 -4.651,-10.2179 -4.425,-8.8604 3.946,-25.8904 2.582,-6.3014 1.87,-10.0704 0.657,-11.44 2.694,-1.7671 8.248,-5.4346 9.209,-6.021 1.975,-1.8075 5.919,-10.8371 7.893,-12.6441 -9.872,27.109 -35.544,57.7932 11.839,74.0589 7.897,3.6142 23.677,-12.6485 27.625,-5.4192 3.949,10.8439 -27.631,27.093 -15.785,30.7074 11.845,5.422 9.859,-25.2874 21.705,-27.0946 9.871,-1.8074 1.973,18.0592 -1.973,25.2884 -5.922,9.0365 -17.753,12.6402 -27.625,19.8695 -2.879,3.9535 -11.349,11.9185 -13.812,14.4505 61.203,-21.6877 37.474,-57.7923 69.063,-75.8654 9.871,-5.4217 -15.792,23.4792 -5.92,28.9011 13.82,7.2289 32.222,-1.8017 46.042,-9.0316 9.871,-3.6142 13.808,-18.0599 21.705,-23.482 35.1,-21.8089 65.113,-14.4466 71.036,-21.6759 5.923,-5.4219 -13.815,-14.4476 -7.893,-19.8695 9.872,-7.2291 25.645,-1.8055 39.465,-3.6126 3.948,0 11.838,1.8094 13.813,-1.8054 3.948,-5.4219 -3.953,-12.6424 -1.973,-16.257 0.126,-0.2251 0.548,0.096 0.657,0 1.018,2.1179 6.247,1.6555 9.208,3.0106 14.067,-14.3715 18.952,-25.0362 48.015,-31.3095 10.346,-6.0649 -7.903,-30.7095 11.84,-27.0948 1.043,21.7137 48.963,35.1311 28.283,-12.0421 14.666,5.6204 45.06,39.4559 36.175,6.0211 -3.948,-12.6512 -44.072,-16.8512 -38.149,-31.3094 3.949,-12.6512 11.832,6.6192 25.652,10.2358 7.897,1.8074 23.016,1.8093 30.914,-1.8055 19.743,-12.6512 -11.852,-53.594 11.839,-40.9432 19.743,12.6509 -20.489,51.6697 34.203,21.6757 94.766,-28.9165 16.433,-2.9957 36.175,-30.105 1.975,-1.8074 3.945,3.6126 7.893,3.6126 3.949,0 9.866,0 11.84,-3.6126 1.975,-3.6146 -5.923,-16.257 0,-16.257 1.975,0 20.384,15.6569 30.256,12.0423 13.82,-3.6147 36.829,-4.8124 44.726,-13.8485 1.975,0 1.973,-1.8055 1.973,-3.6126 l -3.946,-3.6127 c 11.845,-41.5678 49.317,-84.8773 73.009,-121.0231 61.203,-99.4009 98.639,-213.0874 140.099,-319.7175 31.589,-77.7132 41.435,-98.0983 45.384,-181.2334 1.975,-12.651 9.869,-27.0876 3.946,-39.7386 -15.794,-41.5678 -191.378,-101.1381 -236.786,-130.0547 -5.923,-3.6145 65.142,-102.9411 15.785,-137.2797 -17.768,-12.6508 -55.244,0.01 -67.089,-18.0633 -51.332,-81.3279 11.848,-43.3388 -3.947,-66.8337 -23.691,-32.5308 -49.315,-7.2074 -78.929,-39.7387 -25.665,-27.1094 -7.9,-28.8874 5.92,-54.1894 7.897,-16.2657 -39.465,-16.2527 -39.465,-23.482 1.975,-12.6512 1.973,-77.6706 1.973,-79.4778 -41.46,-32.5312 7.887,-12.6376 19.732,-25.2883 7.897,-10.8439 -41.434,-75.8611 -47.357,-83.0903 -33.563,-41.5677 -71.015,-90.2964 -110.501,-126.442 -5.922,-5.4218 -37.487,-27.0891 -43.41,-37.9326 -29.615,-50.6042 65.136,-179.4105 27.625,-210.1346 -9.872,-10.8434 -27.619,-10.8335 -39.465,-18.0628 -21.717,-14.4585 -31.559,-39.7321 -53.277,-52.3832 -1.975,0 -69.062,-9.0316 -71.036,-9.0316 -11.846,-9.0365 -15.781,-23.4752 -23.679,-36.1263 -43.434,-65.0624 7.247,-59.5829 -14.47,-106.5726 -9.871,-21.6872 -47.362,-1.7997 -39.464,-14.4504 9.871,-16.266 23.672,-27.087 35.518,-41.545 -63.178,-27.1095 19.746,-70.4247 -5.92,-110.1854 -39.486,-63.2549 -100.607,-39.7112 -151.938,-90.3155 l -1.975,-9.0315 c -1.975,0 -3.946,-10e-4 -5.92,1.8055 0,-1.8075 -1.973,-1.8055 -1.973,-3.6128 z m 26.309,1228.2929 c -4.302,-0.4244 -9.42,0.236 -21.048,6.6232 -3.72,23.8422 11.135,16.5668 15.786,21.6756 4.651,5.1092 12.77,3.139 11.839,-9.6336 -0.929,-12.7724 1.288,-9.3841 17.102,-10.2357 15.813,-0.8517 3.156,-10.382 -9.867,-7.8275 -6.511,1.2762 -9.51,-0.1726 -13.812,-0.6014 z m -282.829,491.3171 c -1.746,-0.4269 -3.401,1.2344 -5.262,4.2147 -3.72,5.9605 -9.706,11.7748 -12.497,2.4083 -2.79,-9.3666 -8.231,-5.1696 -13.812,-6.021 -5.581,-0.8517 -1.09,5.9355 2.631,14.4505 3.72,8.5151 8.955,6.9757 21.047,7.8273 12.093,-8.5148 15.288,-1.0748 12.497,-13.8483 -1.395,-6.3861 -2.86,-8.6058 -4.604,-9.0315 z m 289.406,631.6077 c 0.111,0.1151 0.536,-0.225 0.657,0 0.111,0.2 -0.11,0.4096 0,0.6018 -0.766,1.3613 -1.19,2.7663 -1.972,4.2148 0.522,-1.8882 0.852,-4.0121 1.314,-4.8168 z m -105.238,6.021 c -1.862,0.058 -1.626,2.0495 0,4.8166 3.255,5.5348 -3.835,9.0619 -1.973,12.042 1.861,2.9804 6.611,5.5954 9.866,6.0213 12.558,3.8315 21.865,5.5345 19.075,0 -2.791,-5.5348 -12.112,-6.6535 -11.182,-9.6338 0.929,-2.9803 9.269,-0.1731 -3.289,-7.8273 -6.278,-3.8315 -10.636,-5.472 -12.497,-5.4188 z m 50.646,25.2882 c -6.511,-0.425 -14.517,6.3311 -9.866,11.44 4.651,5.1091 9.819,-4.9632 14.47,-2.4084 4.651,2.5544 5.554,2.6275 15.786,-1.2042 10.232,-3.8321 4.26,-9.5308 -20.39,-7.8276 z m -296.642,28.299 c -2.628,0.8503 -5.426,3.9889 -7.892,9.6336 -6.578,15.0528 5.262,4.817 15.128,12.6442 9.866,7.8274 -2.631,17.4612 -9.866,25.2884 -7.236,7.8276 -6.578,-6.0209 1.314,-13.8483 7.893,-7.8274 -9.209,-9.0315 -9.866,-5.419 -0.657,3.6128 -7.893,7.2253 -18.417,9.6337 -10.524,2.4083 -9.208,18.6654 -3.288,32.5137 5.919,13.8483 7.892,-9.0315 13.812,-7.8273 5.92,1.2043 5.262,-0.6013 14.47,10.8378 9.209,11.4398 18.417,7.2253 26.31,4.8167 7.893,-2.4082 13.155,-9.0314 11.839,-16.8587 -1.315,-7.8275 -11.181,-9.0316 -19.732,-13.8486 -8.55,-4.8167 14.47,3.6128 6.578,-6.0209 -7.893,-9.6336 4.604,-12.6443 4.604,-6.0211 0,6.6232 7.235,4.2148 10.524,13.8485 3.288,9.6336 6.577,4.8168 16.443,-5.419 9.866,-10.2358 1.973,-19.2673 -9.866,-25.8906 -11.839,-6.6232 -13.813,-5.419 -30.256,-9.0315 -3.289,-6.0216 -7.459,-10.4484 -11.84,-9.0316 z m 422.271,31.9117 c -3.605,-0.057 -9.541,1.1308 -19.075,2.4083 l 2.631,15.0527 c 4.418,3.8316 6.363,3.457 7.235,1.8056 0.437,-0.8244 0.606,-2.2357 0.657,-3.6128 0.05,-1.3769 0,-2.8311 0,-4.2148 0,-1.3826 0.295,-1.8631 0.657,-2.4082 1.09,-1.6363 3.667,0.1007 8.551,3.6125 6.511,4.6833 4.411,3.7713 3.946,-6.0211 -0.232,-4.896 -0.999,-6.57 -4.604,-6.6231 z m -382.806,39.7388 c -4.316,1.6094 -5.097,7.0748 1.314,13.8482 9.866,10.2358 23.021,15.6499 17.759,-0.6014 -5.262,-16.2566 -5.262,-12.0419 -13.813,-13.2461 -2.137,-0.3007 -3.823,-0.5366 -5.262,0 z"
         inkscape:connector-curvature="0" />
      <path
         inkscape:export-ydpi="96"
         inkscape:export-xdpi="96"
         style="fill:none;fill-opacity:1;stroke:#8a1e63;stroke-width:22;stroke-miterlimit:4;stroke-dasharray:none;stroke-opacity:1"
         id="se-7"
         d="m 11508.934,1972.8373 c -5.804,0.5194 -10.852,2.4813 -13.813,7.2253 -5.923,9.0365 19.729,14.4457 25.652,23.4821 5.923,10.8438 9.866,23.4751 9.866,36.1264 0,21.6875 -33.548,37.921 -27.625,59.6082 1.975,16.2657 71.071,13.226 5.92,51.1789 -17.769,10.8438 -153.897,-50.5943 -181.537,-18.0631 -11.846,14.4585 37.5,117.4023 -1.973,131.8608 l -63.143,-25.2884 c -11.846,0 -49.33,63.2131 -51.304,77.6715 -3.949,19.8801 -3.938,45.1482 -19.732,63.2209 -11.846,12.6509 -33.548,-7.2426 -27.625,25.2884 7.897,39.7606 59.208,43.3253 37.491,92.1219 -11.846,30.724 -76.949,101.1362 -88.795,133.6671 -3.949,16.2655 21.709,30.6986 15.786,46.9641 l -44.069,34.3201 c -15.794,7.2289 -47.353,-9.0404 -55.25,7.2253 l 19.731,70.446 c 0,0 -9.866,54.1887 -9.866,55.9958 l 5.92,66.8335 c -1.975,7.2294 -11.839,9.0276 -13.813,16.2569 -17.768,48.7969 -45.374,99.32 -63.143,149.9239 -11.846,32.5314 71.043,14.403 57.223,102.96 -13.82,84.9426 -67.045,0.5769 -147.991,47.5662 -25.666,14.4582 -69.06,75.8495 -74.983,104.766 -1.975,9.0367 9.867,16.2532 7.893,23.4823 -1.975,19.8801 -29.598,32.5028 -29.598,52.3831 0,218.6818 29.598,-160.88 29.598,57.8018 0,10.8437 -13.813,18.0575 -13.813,28.9011 -1.974,12.6508 5.919,23.4753 7.894,36.1263 0,10.8436 -9.868,23.4763 -7.894,34.3199 1.975,27.1092 33.543,50.5622 37.492,77.6715 3.948,39.7604 -27.631,90.2951 -17.759,128.2483 11.845,41.5677 86.817,37.9082 94.714,83.0903 l -21.705,72.2527 c -15.794,12.6512 -55.251,3.6029 -53.277,21.6758 9.872,77.7137 61.181,57.7462 39.464,160.7617 l 1.973,52.3832 c -17.769,41.5676 -80.9,45.1511 -84.848,57.802 -1.975,3.6147 7.892,5.4163 7.892,10.838 3.949,7.229 7.895,16.2527 3.947,23.4817 -5.923,10.8438 -25.65,12.6376 -29.598,25.2887 -11.846,32.531 43.434,105.3378 0,161.3639 -17.769,23.4948 -25.649,5.4286 -31.572,-12.6443 -11.846,1.8075 -31.567,-14.4554 -39.464,-5.4189 0,0 23.677,81.2722 25.651,102.9598 0,12.6511 -19.738,45.1521 -7.892,55.9958 75.022,68.6769 54.168,-13.7006 77.613,10.8378 8.141,9.6357 4.136,42.9079 0,53.5873 -4.274,11.061 0.22,17.9767 -4.604,27.0945 -7.36,13.9139 6.809,7.4205 1.314,13.8486 -7.778,9.1023 -21.915,11.9268 -14.47,18.0631 20.446,16.8523 12.239,15.4896 6.577,31.3095 -3.8,10.617 19.73,-6.6261 23.679,-1.2043 6.91,9.9403 -7.133,4.3251 -4.605,12.0422 2.904,8.8624 7.428,8.1999 11.182,21.6756 3.755,13.4759 -4.112,36.5756 7.893,43.9535 5.923,9.0368 7.23,-20.4755 17.101,-13.2462 14.144,6.9252 -14.142,20.4696 7.235,23.482 -4.274,18.6662 -1.815,26.4251 10.524,26.4928 -3.631,14.9758 8.549,40.0349 21.048,44.5556 3.949,7.2288 1.314,12.6404 5.262,19.8694 7.897,9.0365 23.674,9.0268 31.571,18.0631 11.846,12.6512 7.227,42.1445 23.021,47.5664 7.898,1.8074 19.731,-3.6166 23.679,3.6127 7.897,12.6511 14.476,26.4859 4.604,39.1367 -5.923,10.8437 -33.541,-3.6195 -39.464,9.0318 -7.897,14.4579 47.366,36.123 31.572,41.5448 -17.769,7.2293 -45.381,-28.91 -53.278,-12.6442 -3.948,3.6145 -0.668,21.0611 15.129,44.5559 l 13.154,19.8696 c 27.64,39.7601 51.304,75.8649 51.304,75.8649 -3.948,9.0362 -19.732,21.0679 -19.732,31.9116 -1.975,10.8437 10.524,18.0573 10.524,28.9011 0,0 -21.055,6.6193 -7.235,13.8484 7.897,3.6148 19.727,-1.8056 27.625,-1.8056 13.82,1.8074 27.616,10.8379 43.411,10.8379 49.357,0 36.15,-30.7095 83.533,-27.0947 5.923,0 37.486,18.0677 47.357,9.0316 11.846,-10.8438 21.705,-23.4744 23.679,-37.9326 1.975,-46.9899 -63.171,-25.2516 -11.839,-93.9283 5.922,-9.0363 7.886,-21.6738 19.732,-25.2884 13.82,-3.6147 31.566,7.2187 41.437,-1.8055 5.923,-9.0363 -15.788,-19.8638 -11.839,-30.7073 1.975,-7.2293 13.808,-1.8056 21.706,-1.8056 9.871,0 17.753,3.6253 27.625,1.8056 3.948,0 21.698,-3.6089 35.518,-10.8381 5.923,-1.8073 -5.93,25.2954 11.839,12.6443 9.871,-9.0364 11.829,-18.062 31.571,-19.8696 1.975,0 -3.959,7.2245 -1.972,9.0316 0,0 28.94,-3.6038 28.94,1.8055 1.975,3.6145 -3.946,7.2234 -3.946,10.8378 1.975,3.6146 7.892,5.42 9.866,3.6128 33.563,-28.9166 30.911,-90.8974 36.834,-128.8504 9.871,-61.4476 -0.01,41.5775 21.705,-18.0631 3.949,-5.4219 -9.868,-12.6414 -5.92,-18.0632 1.975,-5.4217 17.759,0 17.759,-5.4189 5.923,-23.4948 -23.687,-47.5585 -7.893,-62.0167 5.923,-5.4219 15.784,1.8093 19.733,-1.8055 -19.42,-22.3476 -25.654,-43.3458 -21.706,-54.1897 1.975,-14.4583 10.52,-29.4959 18.417,-42.147 1.975,-1.8075 11.841,-1.8036 9.866,-5.4189 -7.897,-9.0383 -27.625,-9.0258 -27.625,-19.8695 -1.975,-14.4585 23.679,-21.669 23.679,-34.32 0,-14.4583 -31.568,-23.4776 -39.465,-32.5138 -3.948,-3.6147 -11.842,-10.8378 -5.919,-10.8378 13.82,-5.422 37.485,10.8436 47.357,0 13.82,-16.2658 -27.626,-52.9805 -25.652,-62.0166 1.975,-7.2293 17.099,7.8408 21.048,0.6014 5.923,-9.0365 -11.177,-46.9615 -19.075,-52.3832 -11.845,-7.2291 -46.705,-6.0145 -36.833,-16.859 9.871,-10.8442 33.536,2.4084 49.33,2.4084 21.718,0 3.943,-10.8339 11.84,-18.0632 1.975,-1.8075 11.839,3.6146 11.839,0 -13.82,-28.9164 -41.308,-13.9731 -71.036,-18.6651 -5.923,0 0,10.838 -3.947,10.838 -5.922,1.8074 -5.917,-9.0306 -9.866,-10.838 -1.974,0 -3.945,5.419 -5.919,5.419 -5.923,0 -11.839,0 -13.813,-3.6125 -7.897,-16.2658 85.504,-9.6339 89.453,-9.6339 1.975,0 3.945,-3.6115 5.92,-5.4189 2.961,-1.3539 8.293,-0.1727 9.866,0 0,-4.0665 -9.063,-5.6065 -11.839,-6.6231 0.11,-0.1007 -0.246,-0.4963 0,-0.6014 3.948,-3.6146 33.549,10.8498 25.651,-10.8378 0,-5.4218 -21.708,-9.0306 -15.785,-10.838 13.819,-1.8074 38.8,-0.6 50.646,-7.8273 35.537,-23.4947 20.39,-94.5303 20.39,-94.5303 31.588,-3.6146 9.198,49.9705 28.94,57.1998 5.923,3.6147 -9.869,-16.2549 -3.946,-19.8694 9.871,-3.6148 15.784,30.7114 19.732,23.482 5.923,-12.651 3.942,-29.4963 11.839,-42.147 7.897,-12.6511 6.57,-10.2323 20.39,-17.4612 3.949,-3.6148 26.311,-3.6107 24.337,-7.2252 0,-12.6512 -9.863,-14.4447 -15.786,-25.2884 -1.975,-1.8073 -5.921,-12.0422 -3.946,-12.0422 31.607,30.7671 36.828,8.4365 46.699,-4.2147 5.923,-9.0362 -12.491,-20.4725 -24.336,-18.6652 -1.378,13.7283 -4.79,15.0015 -19.075,7.2253 -10.802,3.293 -26.676,15.7978 -45.384,18.6652 -7.897,5.4218 -10.518,14.4485 -20.39,18.0632 -13.82,5.4218 -13.804,-4.8148 -29.598,-8.4295 -6.037,12.6683 -22.358,-3.6089 -32.229,0 -3.949,1.8075 3.28,9.0296 -0.658,12.6443 -5.922,5.4217 -9.864,7.2369 -13.812,1.8054 -3.949,-9.0365 9.869,-12.6414 3.946,-18.0632 -9.871,-9.0364 -21.699,-0.6014 -33.545,-4.2146 -11.845,-5.4219 -7.886,-5.419 -14.47,-13.2465 -10.625,-5.0252 -10.979,-9.7965 -26.31,-5.4188 2.93,4.3446 6.426,5.3368 15.786,12.0421 10.697,7.6637 -0.258,7.2679 -7.235,3.0105 -5.615,-3.4266 -11.631,-6.9044 -16.443,-14.4505 -6.759,-0.043 -13.483,-0.9942 -24.337,0 -11.845,3.6148 -27.94,16.4256 -54.592,4.8167 -3.949,-3.6147 19.73,-6.6222 23.678,-8.4292 13.82,-7.2294 13.146,-4.2136 28.941,-6.0211 5.923,0 1.313,-12.6425 3.289,-16.2571 5.922,-9.0365 13.807,11.4411 23.678,9.6339 11.846,-1.8075 7.174,-16.0585 18.417,-12.6444 19.629,5.9606 18.794,-4.2875 35.518,0.6014 19.287,13.4155 30.816,23.5577 36.833,12.6441 -21.982,-43.9478 0.624,-31.7544 11.84,-16.8589 7.703,10.2307 17.305,16.0321 28.941,14.4506 23.14,-16.3871 -13.674,-25.8459 -25.652,-35.524 2.961,-13.4589 0.229,-20.2946 -3.947,-14.4506 -4.547,6.3643 -11.47,9.6074 -9.866,7.2253 9.045,-13.4333 -10.632,-9.9891 -7.893,-15.0526 2.739,-5.0634 15.49,1.5324 25.652,-16.2569 10.565,13.0854 6.507,23.5796 7.893,36.1265 9.873,12.3365 9.913,-14.5361 29.598,19.267 0,12.6513 -7.242,43.3517 8.551,43.3517 15.794,0 31.564,-18.6643 45.384,-20.4716 7.898,-1.8074 13.811,6.627 17.759,1.2042 0,-1.8073 -7.894,-17.4601 -5.919,-19.2673 55.28,-23.4946 37.481,-39.729 55.25,-57.8017 7.897,-5.4219 1.308,-7.8266 11.182,-9.6338 1.974,0 17.099,21.0843 19.074,3.0104 0.341,-2.8111 -0.111,-4.8076 0,-7.2251 -8.676,-3.414 -13.034,-4.6422 -21.706,-1.8056 -9.208,3.0105 -15.457,6.0211 -18.417,7.2253 -2.959,1.2042 -6.246,-1.5055 1.973,-5.419 8.222,-3.9139 11.182,-5.1181 11.84,-9.0316 0.327,-1.9568 1.48,-3.3115 2.631,-4.8169 -2.303,8.1284 0,12.0422 7.892,7.8274 7.894,-4.2147 8.224,-3.9136 1.973,-9.6337 -4.686,-4.2897 -6.351,-4.4177 -7.893,-1.8055 0.111,-0.5539 0.111,-1.1538 0,-1.8056 -0.657,-4.5155 0.328,-2.7094 -4.604,-9.0314 -4.933,-6.3222 3.289,-1.8055 8.551,4.8167 9.866,8.1282 6.248,10.8378 16.443,8.4295 -5.682,-22.3689 -27.071,-19.7355 -32.887,-46.9642 -7.897,-5.4217 -1.311,-12.0402 -11.181,-15.6547 -7.898,-3.6148 -12.494,6.6242 -18.417,4.8169 -11.846,-7.2293 -30.252,-18.6595 -38.149,-29.503 -5.923,-7.2292 -12.211,-14.8262 7.893,-4.817 13.706,10.8611 17.303,6.2439 17.759,0.6014 -17.389,-10.7918 -29.57,-14.0549 -47.358,-17.461 -3.948,-1.8075 4.927,-4.7724 -4.604,-12.6442 -23.683,-19.3299 -21.938,-9.1984 -30.914,-25.8907 -3.948,-7.2293 -4.6,-11.438 -12.497,-15.0525 -9.871,-5.4218 -19.33,22.1996 -30.913,22.2778 -11.584,0.072 5.379,-29.6493 -36.176,-27.0947 -5.91,0.3612 -6.575,-20.4706 -12.497,-22.278 -3.949,-1.8074 -9.866,3.6147 -9.866,0 -1.975,-10.8438 5.262,-13.8424 3.288,-24.6861 -1.975,-10.8436 -11.179,-24.0793 -15.128,-33.1156 -0.543,-20.0742 16.43,-10.9617 -0.657,-30.1054 -3.949,-7.2293 -5.261,-6.6192 -7.235,-13.8485 -3.949,-7.2293 0,-12.038 0,-19.2673 0,-3.6145 9.867,-1.8036 7.893,-5.419 -1.975,-7.2293 -17.761,-9.0265 -15.786,-18.0631 12.118,-32.6849 -30.96,-41.882 -5.92,-83.6923 15.795,-5.4219 24.33,27.1004 36.176,16.2568 11.846,-10.8438 -1.309,-18.6588 -9.208,-31.3096 -7.556,-6.0648 -7.235,-12.7029 -7.235,-20.4717 -3.949,-10.8436 -3.961,-21.6698 -1.973,-32.5134 1.975,-9.0364 9.865,-16.2522 11.839,-25.2886 1.975,-14.4584 -4.605,-12.6362 -2.631,-27.0946 13.023,1.5998 15.973,-3.6314 -2.631,-12.042 12.182,-26.2773 -52.049,-15.7605 -22.363,-54.1894 11.846,-7.229 19.067,13.247 32.887,11.4398 5.923,0 1.289,-11.7884 19.075,-18.0629 7.897,-9.0365 2.627,-23.4771 8.55,-32.5138 3.949,-3.6145 5.917,14.4505 9.866,14.4505 15.795,3.6147 13.816,-23.4751 7.893,-36.1263 -17.589,-7.3764 -26.208,-8.596 -50.646,-57.1999 28.527,25.3589 26.078,31.4295 44.069,33.1158 0,5.4219 1.651,11.6902 13.155,9.0315 6.053,-1.3978 -5.085,-16.8569 7.235,-20.4715 17.313,6.082 27.622,-9.0239 33.545,-23.4821 3.948,-12.6508 -22.357,1.8113 -34.203,-7.2253 -7.897,-5.4217 19.07,-12.64 26.968,-19.8693 5.922,-5.4217 1.972,-18.0592 5.919,-25.2883 1.975,-1.8075 9.866,1.8074 9.866,0 -1.975,-5.4219 -15.788,-7.2232 -11.839,-10.8379 5.923,-5.4218 17.757,5.4325 21.705,1.8055 3.949,-5.4218 -9.867,-10.8351 -7.893,-16.2568 1.975,-3.6146 9.864,-3.6252 13.813,-1.8055 -7.234,-3.2797 -14.739,-5.4188 -9.866,-5.4188 13.82,-1.8074 27.619,16.2597 39.465,10.8378 13.819,-7.2291 15.784,-25.2814 17.759,-37.9326 1.974,-10.8437 -16.449,-18.6613 -6.578,-25.8906 7.897,-5.4219 21.702,21.6807 27.625,12.6442 5.923,-12.6511 -24.34,-19.8635 -16.443,-30.7071 7.897,-9.0364 25.645,27.6986 37.491,24.084 9.871,-3.6146 8.547,-37.9289 14.47,-45.1578 5.923,-10.844 29.595,-7.2213 35.519,-14.4504 5.922,-3.6146 -1.973,-14.4477 1.972,-19.8694 h 1.973 c 0,-1.8075 0.01,-4.2148 1.973,-4.2148 5.923,-3.6147 3.943,22.2797 9.866,18.6653 13.819,-5.422 -5.927,-34.9212 7.893,-36.7285 3.948,-1.8075 3.944,10.8379 7.893,10.8379 23.691,-3.6148 34.196,-102.9483 46.042,-124.6356 7.896,-16.2657 31.432,-35.9543 43.41,-54.7915 -15.794,-32.5311 -74.325,-42.1237 -72.351,-85.4987 1.975,-36.1459 52.626,-45.1404 40.78,-77.6716 -5.923,-14.4582 -15.121,-22.8747 -28.941,-31.9114 -3.949,-1.8073 -11.182,-4.2156 -11.182,-9.6337 0.366,-1.2531 0.792,-2.5025 1.314,-3.6126 1.186,1.0056 3.824,3.022 4.605,3.6126 7.564,5.7201 7.893,7.2253 9.208,10.2358 1.314,3.0106 15.457,9.3325 18.417,12.042 2.959,2.7094 12.826,-5.1178 13.812,-9.0314 0.987,-3.914 -8.221,-12.9459 -15.128,-14.4506 -6.248,-0.3021 -6.577,4.5079 -11.181,-0.6014 -1.857,-2.0643 -4.659,-7.912 -7.235,-13.8485 17.369,-8.6687 45.106,-6.6898 56.565,-13.2463 3.949,-1.8075 -3.96,-9.0306 -1.972,-10.8378 3.948,-1.8075 5.919,9.0324 7.893,7.2253 11.845,-9.0364 -1.492,-10.5449 -11.84,-17.4612 -3.948,0 -11.84,-0.011 -9.866,-1.8054 11.846,-5.4217 35.52,-1.7997 31.572,-12.6441 -1.91,-9.6145 -28.515,-6.9586 -45.384,-23.4819 14.289,0.9898 56.375,24.3356 71.693,21.0734 3.379,-1.2632 -9.78,-19.1309 -26.309,-16.2566 -3.949,-10.8438 2.958,-10.8311 16.443,-12.6442 1.975,-14.7533 -19.732,-9.0295 -5.261,-26.4926 3.579,-4.3198 -9.211,-18.0631 -5.263,-18.0631 7.24,0.4518 13.51,4.8585 17.102,13.8483 1.699,4.249 5.097,-0.3496 9.866,-1.8056 4.769,-1.4574 10.739,0.6633 9.866,-2.4084 -7.904,-27.8202 -6.665,-19.553 36.176,7.8276 13.973,8.9304 12.129,-0.8805 17.101,-6.0213 6.454,-6.6729 -10.198,-11.7395 -5.262,-14.4505 13.82,-7.2292 11.831,9.0323 27.625,7.2253 3.587,-0.1928 -3.437,-12.5909 11.182,-12.0422 17.433,2.408 11.1,-7.9783 19.732,-7.8272 8.632,0.1539 12.166,10.2369 23.679,5.4188 7.897,-3.6145 17.53,-4.5509 23.453,-11.7802 -23.692,-46.9895 -70.801,-74.8915 -88.57,-132.7247 -1.975,-9.0364 15.787,-77.6597 13.813,-99.3472 -3.949,-28.9167 -51.297,-52.3695 -63.143,-77.6716 -11.846,-18.0725 29.612,-43.3418 3.946,-61.4146 -9.871,-7.2294 -39.467,9.0437 -35.518,-12.644 0,-7.2292 7.894,-14.4466 5.92,-21.6759 -5.923,-43.3747 -29.61,-45.1373 -7.893,-83.0902 1.975,-5.422 -9.864,-5.4171 -13.812,-9.0318 -11.846,-10.8435 -17.751,-28.898 -33.546,-34.32 -3.948,-1.8073 -7.889,7.2262 -13.812,5.4192 -7.897,-3.615 -1.968,-19.8667 -9.866,-25.2886 -37.512,-34.3385 -71.014,-20.463 -112.474,-36.7282 -35.537,-14.4584 -92.723,-57.7897 -126.286,-81.2842 -15.794,-9.0364 15.798,-7.2176 -7.893,-21.6758 -7.897,-5.4219 -17.756,-5.4168 -23.679,-9.0316 h -3.946 c -7.897,1.8075 -17.268,0.2274 -25.652,0 -2.097,-0.058 -3.985,-0.1726 -5.92,0 z m 76.955,1390.2589 c 3.949,3.6148 -5.934,12.6442 -1.972,12.6442 3.948,0 13.813,-1.8035 11.839,-5.419 -0.755,-2.7682 -5.377,-5.19 -9.866,-7.2252 z m 145.361,-119.2167 c 0.986,2.711 1.727,5.0417 1.973,6.6233 -0.01,-1.9093 -0.168,-4.9663 -1.973,-6.6233 z m -112.474,773.7043 c -0.828,-0.072 -1.638,-0.1151 -2.631,0.6014 -3.31,2.4099 -3.03,27.1554 3.947,33.1158 6.976,5.9606 22.791,14.4782 25.652,10.2358 4.588,-6.8047 -13.188,-11.4271 -16.444,-18.6653 -2.848,-6.3329 -4.73,-24.6847 -10.524,-25.2884 z m -152.596,251.0775 c -1.026,0.3755 -1.314,1.3539 -1.314,4.2146 0,5.72 -5.591,9.0318 -1.314,14.4506 l -0.657,0.6014 c 7.893,7.2251 13.484,7.2261 13.155,1.2042 -0.328,-6.0212 5.262,-6.3223 5.92,-10.8381 0.657,-4.5158 -2.96,-7.5264 -9.866,-9.0314 -3.454,-0.7539 -4.893,-0.9784 -5.92,-0.6014 z m 90.769,12.6441 c -0.889,0.1727 -1.891,0.6014 -3.289,1.2042 -5.591,2.4085 -8.551,1.8075 -14.47,1.2043 -5.92,-0.6014 1.645,6.9243 5.919,9.6337 4.275,2.7094 5.262,-2.709 7.235,1.2042 v 0.6014 c 4.933,8.4295 8.551,16.8588 15.129,10.2358 6.577,-6.6233 11.181,-6.3223 5.262,-11.44 -5.92,-5.1182 -8.551,-4.2148 -8.551,0 0,4.2147 -2.631,-2.4085 -3.289,-7.8273 -0.491,-4.0644 -1.279,-5.325 -3.946,-4.817 z m -72.352,1.8055 c -4.285,0.3654 -4.275,2.1831 2.631,6.0212 1.973,6.0211 -3.617,10.537 9.209,9.6336 12.825,-0.9035 19.074,-2.1073 16.443,-6.6231 -2.631,-4.5158 -4.604,-6.9241 -8.551,-9.0317 -3.946,-2.1072 -4.275,4.5159 -6.577,4.2147 -2.302,-0.2992 1.316,-3.3113 -7.893,-4.2147 -2.302,-0.2245 -3.833,-0.1151 -5.262,0 z m 319.005,312.4923 c -1.199,0.246 -2.82,0.8114 -5.262,2.4084 -9.767,6.3864 -6.611,5.9053 -9.866,11.4401 -3.256,5.5349 -1.75,9.8404 1.972,13.2462 3.722,3.832 15.594,9.8226 15.128,3.0105 -0.463,-6.8119 -7.56,-8.1371 -1.972,-13.2462 5.581,-5.1091 21.048,-5.729 21.048,-10.8381 0,-5.1089 -2.811,-5.9177 -11.182,-4.2147 -6.279,1.2761 -6.269,-2.5503 -9.866,-1.8055 z m -1013.58,9.6337 c -2.645,0.4647 -6.105,2.4021 -10.524,6.0211 -17.673,14.4755 -38.195,16.1286 -33.544,28.9009 7.441,20.4361 11.313,3.0105 24.336,3.0105 13.023,0 26.695,4.8846 27.625,-13.8483 0.697,-14.0498 0.05,-25.481 -7.893,-24.0842 z m 974.115,10.8378 c -3.64,0.282 -2.227,23.1109 -5.92,23.4819 -3.692,0.3712 -12.671,-21.5714 -14.47,-21.0735 -9.415,2.6066 -5.221,15.6094 -11.181,21.0735 -5.961,5.4646 -14.678,1.8227 -19.075,7.2253 -18.193,22.3457 -38.591,68.0141 -39.465,74.6612 0,12.651 9.208,24.6793 11.182,37.3303 0,10.8436 -7.893,11.434 -7.893,22.2779 1.395,6.4904 7.82,4.3062 13.813,13.2462 5.994,8.9401 10.42,24.1024 15.128,28.2989 1.413,1.2589 0.01,7.2253 1.973,7.2253 0.986,0 2.301,-0.6762 3.289,-1.8055 -6.814,11.6847 -18.498,24.5381 -13.155,34.32 5.923,10.8437 21.044,-13.2417 26.967,-22.278 15.794,-27.1093 -34.001,11.2037 26.31,-49.9746 37.511,-27.1092 -8.564,-10.8233 17.101,-37.9325 7.897,-7.2293 24.337,-5.4132 24.337,-16.2567 0,-16.2658 -32.871,9.9089 -26.968,-37.9327 2.532,-20.5156 -10.494,-6.4453 1.314,-28.299 6.008,-11.1173 36.332,-31.2588 17.101,-49.9745 -10.365,1.3539 -13.11,-4.1782 -20.39,-3.6128 z m -980.692,39.739 c -5.814,0.4244 -14.264,2.4082 -21.706,2.4082 -5.58,5.1092 -3.596,8.7571 1.973,24.0843 5.581,15.3269 17.553,-7.9485 24.994,-19.8695 3.721,-5.9605 0.553,-7.0491 -5.261,-6.623 z m 765.611,114.3995 c -5.923,1.8075 -13.811,0 -17.759,5.4191 -17.769,21.6875 -3.945,30.6955 -7.893,52.3831 -9.871,48.7967 -54.59,79.4491 -58.539,131.8609 0,5.4217 7.891,86.7029 11.84,86.7029 25.665,-1.8075 17.757,-72.2473 19.732,-81.2841 5.922,-37.953 38.799,-166.1652 52.619,-195.0819 z"
         inkscape:connector-curvature="0" />
      <path
         inkscape:export-ydpi="96"
         inkscape:export-xdpi="96"
         style="fill:none;fill-opacity:1;stroke:#c68da8;stroke-width:22;stroke-miterlimit:4;stroke-dasharray:none;stroke-opacity:1"
         id="no-6"
         d="m 11546.337,1974.8759 v 0 m 19.743,5.422 c 1.975,0 1.975,0 1.975,1.8073 m 319.835,307.2388 h -1.975 m 0,1.8075 v 0 m 521.213,-684.9628 c 11.846,14.4585 39.486,48.7971 15.794,56.0263 -23.691,7.2291 -84.894,-21.6877 -65.152,-5.422 37.512,28.9167 -37.511,70.4842 -47.383,92.1719 0,1.8073 23.692,79.5206 -3.948,70.4844 -75.023,-27.1097 13.82,-72.292 -11.846,-112.0523 -39.486,-63.2551 -100.689,-39.7602 -152.02,-90.3646 l -1.975,-9.0362 c -1.975,0 -3.948,0 -5.923,1.8075 0,-1.8075 -1.975,-1.8075 -1.975,-3.6147 v 3.6147 c -39.485,7.2289 -31.589,48.7967 -65.151,57.8332 -29.615,7.2292 -17.769,-30.724 -51.332,3.6147 -3.948,5.4217 0,14.4581 -1.975,21.6874 -1.974,1.8073 -23.691,39.7602 -23.691,41.5674 -5.923,14.4582 5.923,61.4479 7.897,74.0992 0,5.4219 -3.948,9.0362 -3.948,14.4582 0,10.8436 1.975,19.8799 3.948,30.7239 5.923,14.4581 19.743,25.3019 21.717,39.7604 9.872,63.2552 -7.897,19.8799 -31.588,39.7601 -27.641,25.3023 -1.975,32.5313 -9.872,63.2552 -1.974,7.2293 -9.871,10.8438 -11.846,18.073 0,1.8073 -25.665,-19.8802 -29.614,-21.6874 -5.923,-3.6145 -78.971,-27.1095 -84.894,-19.8803 -7.897,7.2292 -1.975,21.6875 -7.897,28.9164 -23.692,37.9536 -55.281,14.4585 -88.844,19.8806 -9.871,0 -23.691,9.0362 -31.588,3.6145 -9.871,-7.2291 -5.923,-21.6875 -11.846,-30.724 -13.82,-21.6875 -59.228,-77.7136 -82.92,-90.3646 -78.972,-41.5678 -43.435,66.8699 -43.435,66.8699 -11.845,1.8073 -21.717,-10.8435 -33.562,-10.8435 -5.923,0 -15.795,5.4215 -13.821,9.0362 1.975,1.8075 3.949,3.6145 5.924,3.6145 h -3.949 c -15.794,3.6147 -37.512,-5.4217 -45.409,7.2292 -5.923,9.0366 19.743,14.4583 25.666,23.4948 5.923,10.8437 9.871,23.4949 9.871,36.146 0,21.6874 -33.563,37.9531 -27.64,59.6402 1.975,16.2657 71.075,12.6511 5.923,50.6043 -17.768,10.8436 -153.994,-50.6043 -181.634,-18.0728 -11.846,14.4583 37.511,117.4734 -1.975,131.9318 l -63.178,-25.3021 c -11.846,0 -49.357,63.2553 -51.331,77.7137 -3.949,19.8802 -3.949,45.1824 -19.743,63.2551 -11.846,12.6509 -33.563,-7.2292 -27.64,25.3019 7.897,39.7605 59.229,43.375 37.511,92.1716 -11.845,30.7242 -76.997,101.2086 -88.843,133.7395 -3.948,16.2656 21.718,30.7239 15.795,46.9897 l -43.435,34.3384 c -15.794,7.2289 -47.382,-9.0365 -55.28,7.2289 l 19.743,70.4845 c 0,0 -9.871,54.2186 -9.871,56.0261 l 5.923,66.8695 c -1.975,7.229 -11.846,9.0365 -13.82,16.2658 -17.769,48.7966 -45.409,99.4009 -63.178,150.0047 -11.845,32.5312 71.075,14.4584 57.255,103.0153 -13.82,84.9428 -67.126,0 -148.072,46.9896 -25.666,14.4582 -69.1,75.9063 -75.023,104.8227 -1.975,9.0365 9.871,16.2658 7.897,23.4949 -1.975,19.8803 -29.614,32.5313 -29.614,52.4114 0,218.682 29.614,-160.8485 29.614,57.8333 0,10.8438 -13.82,18.0729 -13.82,28.9167 -1.975,12.6508 5.923,23.4947 7.898,36.1457 0,10.8436 -9.872,23.4948 -7.898,34.3382 1.975,27.1094 33.563,50.6042 37.512,77.7136 3.948,39.7604 -27.641,90.3646 -17.769,128.3178 11.846,41.5676 86.869,37.953 94.766,83.1353 l -21.717,72.2915 c -15.795,12.651 -55.28,3.6146 -53.306,21.6875 9.871,77.7136 61.203,57.8331 39.486,160.8486 l 1.975,52.4114 c -17.769,41.5676 -80.946,45.1825 -84.895,57.8333 -1.975,3.6146 7.897,5.4219 7.897,10.8438 3.949,7.229 7.897,16.2654 3.949,23.4945 -5.923,10.8437 -25.666,12.6512 -29.615,25.3022 -11.845,32.5311 43.435,104.8227 0,160.8487 -17.768,23.4947 -25.666,5.4219 -31.588,-12.651 1.974,0 1.974,0 3.948,-1.8074 7.898,-5.4219 -3.948,-19.8802 -9.871,-27.1094 -41.46,-59.6406 -19.743,28.9167 -84.895,-27.1094 -5.922,-5.422 5.923,-16.2657 5.923,-23.4945 0,-10.8437 -11.845,0 -11.845,0 -11.846,-16.2656 -7.898,-43.3752 -3.949,-39.7606 0,-3.6146 -1.975,-5.4218 -1.975,-7.229 -3.948,-18.0731 -9.872,-34.3385 -13.82,-52.4117 -1.975,-10.8435 15.794,-34.3382 1.975,-34.3382 -49.357,0 35.537,56.0257 -13.82,86.7499 -1.975,0 -3.949,-1.8075 -3.949,-3.6147 -1.975,-10.8435 3.949,-23.4948 0,-32.5313 -5.923,-9.0364 -25.665,-25.302 -27.64,-16.2657 -1.975,14.4585 17.769,23.495 23.692,36.146 3.948,7.2293 -7.898,23.4947 -3.949,32.5314 15.794,37.9527 27.64,18.0728 15.794,43.3747 0,1.8075 0,7.2291 -3.948,7.2291 -3.949,0 -7.897,-10.8434 -11.846,-7.2291 -13.82,23.4946 3.949,54.2188 -11.846,54.2188 -7.897,0 1.975,-23.495 -3.948,-19.8804 -33.563,19.8804 29.614,39.7603 -53.306,39.7603 -9.871,0 0,-18.0729 -7.897,-23.4949 -9.872,-5.4215 -27.64,-25.3017 -33.563,-16.2654 -5.923,12.6512 19.743,19.8804 25.666,32.5314 1.974,5.4218 -51.332,9.0365 -57.255,27.1093 -1.975,7.2289 19.743,14.4582 13.82,19.8801 -9.871,10.8438 -35.537,1.8075 -45.409,10.8438 -5.923,7.2292 19.743,9.0365 17.769,16.2654 -11.846,74.0988 -27.64,-21.6872 -37.511,16.2657 -1.975,3.6145 5.922,7.2292 3.948,10.8437 -9.872,12.6509 -61.203,68.6769 -63.177,70.4842 -3.949,3.6148 -9.872,-7.2291 -13.82,-3.6145 -11.846,9.0365 -9.872,32.5314 -25.666,34.3387 -11.846,3.6144 -13.82,-27.1094 -27.64,-23.4948 -13.82,3.6146 -7.897,27.1092 -17.769,34.3382 -7.897,5.4221 -21.717,-3.6144 -29.614,0 -5.923,1.8075 -7.897,9.0367 -13.82,10.844 -19.743,10.8435 -13.82,-5.4219 -41.46,-5.4219 -13.82,0 -29.615,19.8801 -37.512,10.8436 -7.897,-9.0364 25.666,-16.2657 21.718,-27.1091 -5.924,-9.0366 -17.769,14.4581 -29.615,14.4581 -15.794,1.8074 -31.588,-3.6147 -47.383,-9.0365 -33.563,-14.4582 31.589,-34.3381 37.512,-46.9893 1.975,-7.2293 -11.846,-14.4584 -19.743,-12.6513 -7.897,1.8075 -5.923,18.0731 -15.795,19.8803 -11.845,1.8075 -23.691,-5.4218 -35.537,-10.8435 -23.691,-9.0368 -37.511,-41.5679 -49.357,-48.7972 -5.923,-5.4217 -17.7685,-1.8075 -25.6659,-5.4217 -13.8196,-7.229 -37.5116,-54.2186 -35.537,-66.8696 0,-10.8438 13.82,-18.0729 17.7684,-30.7239 1.9747,-10.8435 -13.8197,-37.9532 0,-34.3385 15.7944,3.6146 3.949,34.3385 19.743,39.7604 7.8972,5.4218 9.8713,-18.0729 19.7425,-21.6877 3.949,-3.6145 7.897,0 11.846,3.6148 -3.949,-9.0368 -5.923,-18.0729 -9.871,-27.1092 -1.975,-12.6512 27.64,-9.0368 35.537,-18.073 3.949,-3.6147 -17.769,0 -15.795,-5.4222 3.949,-9.0362 13.821,-14.4582 23.692,-18.0727 11.846,-7.229 35.537,-1.8073 41.46,-14.458 7.897,-16.2659 -47.383,7.229 -59.228,-3.6148 -7.898,9.0368 -11.846,9.0368 -11.846,-7.2292 1.975,-14.4584 35.537,-18.0729 31.588,-30.7239 -5.922,-14.4583 -29.614,-18.0728 -45.408,-14.4583 -25.6661,7.2291 -15.7945,63.2552 -41.4605,61.4482 -13.8197,0 -3.9484,-23.495 -9.8715,-32.5315 -3.9482,-5.422 -11.8456,-9.0364 -19.7428,-12.6511 0,0 0,1.8074 1.9748,1.8074 -1.9748,0 -1.9748,0 -3.949,1.8074 0,-1.8074 1.9749,-3.6146 1.9749,-3.6146 -5.9228,-3.6147 -11.8457,-7.2293 -11.8457,-12.651 0,-9.0367 23.6916,7.2293 31.5884,1.8074 11.8462,-9.0365 7.8971,-32.5315 21.7174,-37.9533 9.8714,-5.4217 15.7944,14.4583 25.6657,16.2655 3.9483,1.8075 -1.9749,-9.0362 1.9743,-10.8437 3.949,-3.6145 9.872,1.8075 13.821,0 7.896,-1.8074 -19.7432,-1.8074 -17.7691,-9.0363 0,-1.8075 80.9461,-34.3384 75.0231,-34.3384 -63.178,-3.6144 -23.692,45.1822 -84.8946,-5.422 -1.9747,-1.8075 9.8715,0 11.8456,-3.6144 3.949,-3.6148 0,-12.6511 5.923,-14.4585 7.897,-5.4217 17.768,1.8074 25.666,-3.6145 3.949,-1.8074 -1.975,-7.2291 -1.975,-10.8435 3.949,-7.2293 7.897,-12.6512 11.846,-16.2657 9.872,-5.4218 31.588,0 33.563,-9.0368 1.975,-10.8435 -25.666,-9.0362 -25.666,-18.0728 -1.975,-3.6147 1.975,-9.0364 5.923,-14.4581 -3.948,0 -9.871,-9.0365 -13.82,-5.422 -9.871,5.422 -15.794,14.4582 -21.717,21.6875 -7.897,14.4582 -3.949,32.5314 -15.795,43.3749 -5.9226,5.4219 -3.9483,-14.4582 -5.9226,-19.8802 -11.8457,-19.88 -21.7173,-14.4583 -13.82,-32.531 7.8971,-14.4587 39.4856,-46.9896 21.7176,-43.3749 -19.7433,5.4218 -33.5631,84.9426 -57.2546,45.1819 -5.9232,-12.6509 -11.846,-27.1091 -15.7945,-41.5674 -1.9749,-14.4585 27.6398,0 63.1774,-10.8436 7.8967,-1.8074 11.8457,-9.0366 13.8197,-18.0731 -13.8197,12.6512 -39.4856,-14.4584 -39.4856,-21.6874 0,-16.2655 27.64,-19.88 43.4346,-27.1094 -3.949,-19.8803 -21.7175,-1.8074 -37.5119,14.4585 0,0 -1.9748,0 -1.9748,-1.8074 -1.9747,-1.8075 -3.9485,-5.4217 -7.8968,-9.0364 5.9227,5.4219 7.8968,12.651 9.8709,10.8438 -9.8709,9.0363 -17.7683,16.2654 -23.6914,18.0729 -9.8715,0 -5.9226,-18.0729 -9.8715,-25.302 -1.9749,-3.6147 -37.5112,-36.1463 -27.6398,-37.9535 13.8199,0 25.6657,10.8438 37.5113,19.8803 0,-1.8075 -1.9746,-5.4221 0,-9.0365 3.9488,-12.651 27.6401,-12.651 39.4858,-21.6872 1.9749,-1.8074 -1.9747,-9.0367 -5.9228,-7.2293 -15.7942,1.8075 -41.4599,19.8799 -55.2802,12.6508 -17.7686,-9.0363 -3.9483,-50.604 5.923,-56.0256 13.8203,-9.0368 29.6147,18.0728 47.383,18.0728 1.9746,1.8075 41.4602,-41.5678 84.8942,-21.6877 13.82,5.4221 15.795,23.495 29.615,28.9168 13.819,5.4219 -11.846,-27.1094 33.563,-37.9531 57.254,-14.4581 -1.975,77.7134 59.228,74.0987 37.512,-3.6143 -13.82,-32.5309 -11.845,-56.0259 1.974,-25.302 102.663,34.3388 88.843,-28.9166 -1.975,-12.651 -27.641,10.8438 -39.486,7.2291 -7.898,-1.8074 -9.871,-12.6508 -9.871,-19.8801 0,-19.8801 55.28,-39.7604 35.537,-46.9893 -49.357,-18.0729 -33.564,65.0622 -37.512,74.0985 0,1.8074 -23.692,7.2293 -43.434,9.0368 -3.949,1.8074 -1.975,-5.4219 -3.949,-7.2292 -13.82,-7.2293 -29.614,-10.8439 -43.434,-18.073 l -1.975,-1.8075 c -5.923,12.6508 -11.846,21.6874 -15.794,25.3018 -1.975,1.8075 -63.178,-23.4947 -78.972,-23.4947 -5.923,-1.8074 -1.975,9.0363 -5.923,10.8437 -21.717,9.0366 -47.3832,12.651 -69.1004,7.2293 -3.9482,0 -33.5627,-30.7242 -29.6139,-36.1459 9.8715,-12.651 27.6397,-18.0729 41.4601,-21.6875 15.7941,-3.6145 45.4082,12.651 45.4082,-1.8075 1.975,-12.651 -29.6141,-3.6146 -45.4082,-1.8074 -9.8716,0 -17.7686,12.651 -27.6403,9.0364 -41.4602,-14.4585 7.8972,-34.3384 19.743,-34.3384 19.7427,1.8075 53.3055,23.4946 76.9975,9.0366 23.691,-16.2657 -69.1002,5.4217 -80.9464,-19.8803 -3.9482,-10.8438 45.4088,-9.0364 35.5375,-14.4583 -11.8459,-5.4219 -29.6147,1.8074 -39.4857,-7.2293 -31.5888,-23.4947 15.7944,-70.4845 45.4086,-72.2917 21.717,0 49.357,3.6143 61.203,19.8803 5.923,7.2291 -11.846,19.8803 -5.923,27.1096 5.923,7.2291 1.975,-21.6877 9.871,-23.4949 9.872,-1.8075 13.821,16.2656 23.692,18.0728 7.897,0 -15.794,-12.651 -11.846,-16.2656 9.871,-10.844 57.255,27.1094 92.792,-3.6147 5.923,-5.4218 -9.871,-9.0363 -17.769,-9.0363 -69.1,-3.6149 33.563,14.4582 -23.691,18.0729 -9.871,1.8074 -71.075,-25.3022 -98.715,-28.9169 -9.871,0 -17.768,-5.4219 -27.6399,-5.4219 -11.8457,0 -33.5625,16.2659 -35.5373,5.4219 -1.9747,-12.651 29.6144,-12.651 33.5632,-25.3018 3.9484,-16.2658 -35.5376,-23.4949 -35.5376,-41.5678 0,-7.2289 19.7431,0 23.6918,5.4221 5.9229,9.0363 5.9229,30.7239 17.7688,28.9164 11.846,-1.8074 -13.8202,-30.724 -1.9751,-32.5313 15.7941,-1.8074 23.6911,27.1094 39.4861,27.1094 11.846,0 7.897,-34.3385 15.794,-27.1094 9.872,7.2293 -3.948,23.4948 -3.948,36.146 0,1.8074 -3.949,7.2291 -1.975,7.2291 11.846,-3.6145 5.923,-27.1094 17.769,-27.1094 5.922,0 1.974,12.651 7.897,16.2656 11.846,5.4219 31.589,16.2657 37.511,5.4219 3.949,-9.0365 -25.665,-5.4219 -31.588,-12.6508 -9.871,-10.844 -13.82,-23.4951 -13.82,-36.1459 -1.975,-16.2657 27.64,-28.9167 45.408,-25.3021 7.898,1.8075 3.949,16.2655 7.898,23.4944 5.923,10.844 15.794,18.0731 19.742,28.9169 0,3.6146 -9.871,10.8437 -5.922,10.8437 5.922,0 7.897,-7.2291 7.897,-10.8437 -7.897,-36.1458 -51.332,-59.6406 17.768,-70.4841 23.692,-3.6149 27.641,27.1092 27.641,56.0257 1.974,-3.6145 3.948,-9.0364 7.897,-10.8434 11.845,-9.0368 45.408,10.8434 41.46,-1.8074 -3.949,-14.4583 -31.589,-1.8075 -45.409,-10.8438 -9.871,-7.2293 -5.923,-23.4948 -13.82,-32.5311 -9.871,-12.6512 -63.177,-28.9167 -71.074,-34.3384 -1.975,-1.8074 5.922,-7.2293 11.845,-7.2293 7.898,-1.8074 17.769,-1.8074 25.666,1.8074 3.949,1.8075 1.975,10.8438 5.923,10.8438 5.923,1.8074 29.614,-36.1457 57.254,-16.2656 7.898,5.4218 -3.948,23.4947 5.923,27.1092 7.897,3.6146 -3.949,-19.8803 3.949,-23.4946 13.82,-7.2291 43.434,32.5309 43.434,34.3384 11.846,1.8074 35.537,-7.2292 29.615,-16.2659 -5.923,-10.8432 -29.615,7.2293 -39.486,0 -13.82,-10.8432 13.82,-30.7237 35.537,-37.9526 -15.795,5.4219 -29.614,9.0364 -43.434,9.0364 -118.458,1.8074 -13.82,-10.8438 -17.769,-32.5314 -1.975,-14.4584 -27.64,-12.6509 -37.511,-25.3021 -13.821,-14.4583 -7.898,-27.1091 45.408,-21.6874 11.846,1.8075 11.846,21.6874 23.692,25.3022 7.897,1.8074 13.819,-10.8438 21.717,-10.8438 11.846,-1.8074 21.717,-1.8074 33.563,0 -1.975,-1.8074 -3.949,-5.4216 -5.923,-7.2293 -1.975,-10.8435 13.82,-21.6875 25.665,-23.4947 5.923,-1.8075 0,10.8439 3.949,16.2656 5.923,7.2291 19.743,7.2291 23.692,16.2657 3.948,7.2293 -7.898,18.0729 0,23.4947 9.871,9.0364 35.537,25.302 43.434,12.6512 5.923,-12.6512 -31.589,-18.073 -33.563,-32.5313 0,-9.0365 21.717,-1.8074 29.614,-7.2291 3.949,-3.6144 -13.819,3.6145 -17.768,0 -1.975,-1.8074 11.845,-9.0365 7.897,-7.2293 -9.871,1.8074 -17.769,14.4584 -25.666,10.8438 -13.82,-7.2289 -17.768,-23.495 -21.717,-36.1458 -3.949,-5.4219 9.871,5.4217 15.794,7.2291 5.923,3.6147 -19.743,-18.0729 0,-14.4582 1.975,0 80.946,37.953 73.049,-10.8438 -7.897,-59.6405 -63.177,52.4114 -51.331,-25.3022 1.974,-16.2654 49.357,-45.1821 63.177,-37.9529 11.846,5.4218 -1.975,28.9166 7.897,39.7606 3.949,5.4216 9.872,-9.0366 15.795,-12.6512 9.871,-3.6147 37.511,-3.6147 29.614,-10.8438 -5.923,-7.2293 -33.563,18.0731 -31.589,7.2291 0,-12.651 21.717,-16.2654 31.589,-27.1092 11.846,-10.8438 11.846,-32.5315 27.64,-34.3385 11.846,-3.6149 5.923,18.0728 11.846,27.1094 3.948,7.2291 17.768,10.8436 17.768,19.8799 0,10.844 -17.768,16.2658 -15.794,27.1096 1.975,7.2289 11.846,-9.0365 19.743,-7.2293 11.846,1.8074 25.666,28.9167 31.589,19.8801 5.923,-14.458 -23.692,-25.302 -21.718,-39.7604 0,-14.4582 80.946,3.6148 82.921,3.6148 13.82,-9.0365 15.794,-28.9168 13.82,-43.3752 -1.975,-7.2289 -25.666,7.2293 -23.692,0 5.923,-23.4944 86.869,-27.1092 82.92,-45.182 -1.974,-14.4582 -49.357,-14.4582 -39.486,-27.1093 7.897,-12.6509 43.435,-9.0364 45.409,-23.4949 5.923,-72.2914 -65.151,16.266 -80.946,28.9167 -7.897,5.4217 -31.588,10.8439 -25.666,19.8801 7.897,12.651 31.589,5.4221 45.409,10.8439 1.975,0 -3.948,1.8075 -5.923,3.6144 -9.871,5.4219 -21.717,9.0367 -31.589,16.2656 -9.871,7.2293 -59.228,46.9896 -75.022,43.3751 -9.872,-1.8074 -5.923,-16.2657 -9.872,-23.4948 -3.949,-7.2295 -17.768,-12.651 -13.82,-19.8803 5.923,-12.6509 25.666,-14.4583 37.512,-23.4946 1.974,-1.8073 -7.898,5.4217 -11.846,3.6146 -3.949,0 5.923,-9.0365 3.948,-7.2293 -13.82,5.4222 -35.537,34.3386 -55.28,27.1093 -29.614,-10.8437 13.82,-34.3383 35.537,-46.9893 11.846,-5.4219 27.641,-5.4219 35.538,-16.2654 5.923,-5.422 -17.769,5.4218 -25.666,3.6142 -3.949,0 -1.975,-3.6142 -1.975,-7.2292 1.975,-12.651 0,-25.3018 7.897,-36.1457 3.948,-5.4217 15.794,3.6147 21.717,0 3.949,0 -7.896,0 -7.896,-3.6146 0,-5.4219 1.974,-10.8439 3.948,-16.2654 5.923,-5.422 19.743,7.229 23.691,0 3.949,-5.422 -1.975,-16.266 3.949,-23.495 5.923,-7.2289 23.692,-5.4217 27.64,-16.2653 1.975,-7.2293 -25.666,-16.2656 -17.769,-18.0731 13.821,-3.6144 25.666,18.0731 39.486,14.4585 9.872,-1.8075 -15.794,-10.8439 -21.717,-19.8804 -9.871,-12.651 19.743,-27.1093 35.537,-36.1455 15.795,-9.0368 21.717,32.531 41.461,39.7602 11.845,3.6147 27.639,0 35.537,-9.0365 3.948,-5.422 -27.64,0 -23.692,-7.2292 5.923,-10.844 31.589,-9.0363 37.512,-19.8803 9.871,-25.3018 -61.204,41.5678 -43.435,-27.1092 1.975,-10.8437 5.923,-18.0729 7.897,-21.6876 -7.897,5.4219 -15.794,10.8439 -25.666,14.4583 -29.614,12.6511 55.281,-34.3382 49.358,-41.5673 -1.975,-3.6148 -5.923,-3.6148 -11.846,-1.8074 v -1.8074 c 0,-3.6143 -13.82,0 -11.846,-3.6143 5.923,-12.6511 67.126,-9.0367 76.998,-12.6511 3.948,-3.6147 -3.949,-12.651 0,-16.2656 29.614,-25.3023 69.1,-9.0366 78.971,-61.4479 0,-9.0365 -15.794,9.0364 -23.691,12.6511 -9.872,1.8073 -19.743,0 -29.615,0 -7.897,1.8073 -21.717,12.651 -21.717,5.4219 3.949,-23.4951 75.023,-23.4951 55.28,-54.2187 -1.974,-5.422 -19.743,-1.8075 -33.563,-1.8075 1.975,3.6146 5.923,7.2291 9.872,14.4581 -9.872,9.0365 -17.769,19.8803 -27.64,28.9168 -3.949,1.8074 -11.846,12.6512 -13.82,7.2291 -1.975,-9.0364 -1.975,-59.6405 13.82,-61.4479 0,-5.4219 0,-9.0364 3.948,-16.2657 5.923,-14.4581 31.589,-7.2289 45.409,-14.4581 3.949,-1.8073 -9.871,0 -11.846,-1.8073 -5.923,-7.2292 -11.846,-16.2657 -13.82,-23.495 -1.975,-10.8435 15.795,-52.4112 27.64,-52.4112 15.795,-1.8074 23.692,21.6875 39.486,25.302 5.923,1.8075 -5.923,-12.6512 -7.897,-19.8801 -3.949,-9.0366 -1.975,-25.302 -11.846,-30.7237 -9.871,-5.4221 -27.64,9.0364 -37.511,1.8075 -31.589,-23.4949 33.563,-14.4585 43.434,-18.0732 17.769,-7.2293 19.743,-30.724 47.383,-25.302 11.845,3.6147 17.769,18.0727 29.615,18.0727 9.871,0 -15.795,-10.8435 -17.77,-18.0727 v -1.8073 c -1.974,0 -3.948,1.8073 -5.922,1.8073 -3.949,0 0,-10.8437 -3.949,-12.651 -19.743,-3.6144 -33.563,28.9167 -55.28,27.1095 -69.1,-9.0364 37.512,-21.6875 49.358,-30.7239 3.948,-1.8075 -7.898,-1.8075 -13.821,-1.8075 -13.82,-1.8073 -25.665,3.6147 -39.485,1.8075 -17.769,-3.6146 -11.846,-32.5315 -7.897,-46.9895 13.82,-66.8696 43.434,-37.9532 92.791,-56.0261 27.64,-10.8435 -31.588,-28.9167 -39.486,-41.5677 -3.948,-7.2292 17.769,-1.8073 25.666,-5.4219 7.897,-3.6143 -33.563,-30.724 15.795,-16.2656 3.948,0 -5.924,7.2291 -5.924,10.8438 1.975,25.3017 11.846,-12.651 11.846,-16.2655 0,-1.8074 3.949,-10.8439 5.923,-7.2293 5.923,5.4217 -1.975,21.6876 7.897,23.4948 15.795,1.8075 37.512,-5.4218 41.46,-18.0731 5.923,-12.6508 -21.717,-18.0726 -23.691,-30.7235 0,-1.8075 47.383,-27.1097 63.177,-19.8803 9.872,3.6145 -9.871,32.5312 1.975,30.7241 11.846,0 -1.975,-25.3021 7.897,-30.7241 1.975,-1.8074 1.975,-1.8074 3.949,-3.6144 -1.975,-1.8075 -3.949,-3.615 -5.923,-5.422 -5.923,-3.6147 11.845,-14.4583 5.923,-16.2655 -5.923,-1.8075 -9.871,10.8435 -17.769,14.4582 -19.743,7.2293 -43.434,21.6875 -63.177,10.8437 -7.898,-5.4217 15.794,-16.2657 21.717,-25.3019 11.846,-23.4949 15.794,-77.7135 45.408,-57.8334 9.872,7.2289 -29.614,18.0728 -19.742,25.3019 7.897,7.2293 19.742,-12.6508 33.563,-14.4584 9.871,0 19.742,3.6147 27.64,10.8439 11.845,10.8438 33.563,50.6042 27.64,36.146 -3.949,-12.6513 -23.692,-23.4949 -19.743,-37.9532 1.974,-12.6513 25.666,-14.4582 33.563,-25.3021 3.948,-5.4221 -11.846,3.6147 -17.769,5.4219 -29.614,9.0363 -39.486,21.6874 -53.306,-12.6512 -7.896,-18.0727 9.872,-7.2289 11.846,-16.2652 1.975,-1.8075 -5.923,1.8074 -5.923,0 -5.923,-16.2657 49.358,9.0363 57.255,0 13.82,-21.6876 -47.383,-39.7607 -51.332,-39.7607 -3.949,0 3.949,7.2293 1.975,10.8438 -5.923,10.8437 -39.486,48.7968 -51.332,43.3749 -13.82,-5.4217 -15.794,-25.302 -9.871,-37.953 3.949,-10.8436 23.692,-3.6144 31.589,-10.8436 5.922,-5.4221 -17.769,7.2292 -21.718,1.8075 -7.897,-10.8438 25.666,-18.073 35.538,-10.8438 3.949,1.8074 -3.949,10.8438 -1.975,9.0365 31.589,-28.9169 82.92,-10.844 78.971,-50.6044 0,-5.4218 -11.845,5.4221 -17.768,1.8075 -3.949,-1.8075 1.975,-9.0365 -1.975,-10.8436 -1.975,-1.8074 -1.975,7.2289 -3.949,7.2289 -7.897,3.6147 -13.82,1.8075 -19.742,1.8075 -11.846,1.8073 -27.64,10.8437 -31.589,1.8073 -25.666,-46.9892 51.331,-14.4583 53.306,-14.4583 11.845,-9.0364 1.975,-28.9166 7.897,-41.5676 1.975,-5.4218 5.923,12.651 7.897,19.8801 1.975,1.8073 7.897,-1.8075 7.897,0 0,10.8437 -7.897,21.6875 -3.948,30.7238 0,3.6147 43.434,61.4481 53.306,50.6044 23.691,-25.3022 -75.024,-104.8229 -45.409,-117.4738 9.871,-5.4221 29.614,9.0363 45.409,21.6875 -1.975,-5.422 -1.975,-10.8438 -5.923,-14.4585 -9.872,-7.229 -39.486,-3.6144 -35.537,-16.2657 1.974,-14.4579 27.64,-12.6508 43.434,-14.4579 84.894,-12.6513 13.82,25.3018 67.126,48.7968 37.511,16.2654 -43.434,-56.0261 -7.897,-56.0261 9.871,0 15.794,10.8436 23.691,10.8436 11.846,-1.8075 29.614,-1.8075 27.64,-10.8436 -11.846,-75.9062 -61.203,0 -80.946,-3.6149 -3.948,-1.8074 7.897,-5.4217 5.923,-9.0361 0,-3.6145 -5.923,-9.0365 -9.871,-7.2293 -5.923,1.8074 -5.923,12.6511 -13.82,12.6511 -11.846,1.8075 -31.589,3.6143 -37.512,-7.2293 -3.949,-7.229 -1.975,-16.2654 1.975,-23.4945 -9.871,1.8074 -21.717,3.6145 -27.64,9.0363 -9.871,9.0364 0,32.5311 -11.846,39.7603 -7.897,5.4218 0,-21.6874 -7.897,-27.1091 -9.871,-5.422 -21.717,-3.6148 -31.589,-1.8074 -7.897,1.8074 -3.948,16.2656 -9.871,21.6876 -5.923,5.4218 -13.82,10.8437 -19.743,16.2655 -7.897,7.2293 -13.82,14.4585 -19.743,21.6877 v -7.2292 c 5.923,-12.6512 17.769,-25.3022 19.743,-37.9534 1.975,-7.229 -7.897,-16.2655 -3.948,-23.4945 9.871,-9.0367 29.614,-5.422 39.485,-14.4585 41.461,-36.1453 -65.151,-25.302 -7.897,-81.3277 41.46,-43.3753 33.563,37.9531 23.692,77.7132 3.948,-7.229 9.871,-12.6509 15.794,-14.4584 3.949,-1.8074 7.897,10.8439 9.872,7.2294 5.923,-9.0366 -3.96,-95.7865 29.614,-54.2188 17.768,21.6877 23.691,37.9531 23.691,46.9894 7.898,-3.6146 13.82,-7.2291 19.743,-7.2291 7.898,0 11.846,14.4585 19.743,14.4585 15.795,1.8074 33.563,-1.8075 47.383,-9.0366 19.743,-10.8434 -41.46,3.6147 -45.408,-19.8801 0,-7.2289 9.871,-16.2657 19.742,-16.2657 h 3.949 c -1.975,-1.8074 -3.949,-1.8074 -3.949,-5.4217 0,-10.8437 23.692,-7.2291 33.563,-14.4582 1.975,-1.8074 -7.897,-1.8074 -9.871,-3.6148 -13.82,-9.0364 -19.743,-28.9167 -15.795,-45.1824 1.975,-14.4579 41.461,-1.8073 45.409,-16.2655 3.949,-10.8437 -5.923,-21.6874 -9.871,-32.5312 0,12.6513 -1.975,19.8803 -3.949,21.6875 -13.82,0 -27.64,-10.8437 -39.486,-3.6147 -19.742,7.2292 -23.691,30.7239 -35.537,46.9896 -9.871,-5.4219 -27.64,-5.4219 -27.64,-14.4582 3.949,-14.4582 29.615,-16.2654 33.563,-30.7239 3.949,-7.229 -21.717,9.0364 -23.691,1.8075 -3.949,-10.8439 17.768,-19.8802 15.794,-32.5314 0,-7.2293 -27.64,1.8075 -21.717,-1.8075 27.64,-12.6511 73.048,-1.8073 53.306,-25.3018 -7.898,-7.2294 -37.512,-3.6147 -29.615,-9.0366 9.872,-5.4219 25.666,10.8436 37.512,5.4219 11.845,-7.2292 5.922,-30.7242 17.768,-34.3385 19.743,-5.4222 23.692,28.9166 25.666,57.8332 0,-10.8437 3.949,-19.88 7.897,-28.9166 9.872,-14.4583 13.82,36.1458 27.64,43.3751 13.82,7.229 31.589,0 45.409,-5.422 1.975,0 -59.229,-19.8802 -55.28,-32.5312 3.949,-12.651 17.769,-28.9167 31.588,-27.1095 13.821,0 11.846,23.4948 21.718,32.5312 9.871,9.0366 23.691,7.2293 35.537,16.2657 5.923,5.4218 11.845,28.9168 15.794,21.6876 15.794,-43.375 -100.688,-32.5315 -57.254,-117.4739 7.897,-14.4584 41.46,-32.5312 57.254,-21.6874 13.82,7.229 -3.949,92.1716 -3.949,95.7863 3.949,3.6147 9.872,-5.4219 11.846,-10.8438 1.975,-10.8437 -7.897,-25.3019 0,-34.3387 5.923,-9.0362 31.589,5.4218 33.563,-5.4217 0,-10.8439 -27.64,-9.0364 -31.588,-19.8801 -3.949,-9.0363 15.794,-86.7498 45.408,-54.2188 7.897,10.8439 0,112.0521 0,115.6666 -3.948,12.6512 -29.614,34.3387 -15.794,37.953 35.537,10.8437 17.769,-52.4115 29.614,-59.6407 11.846,-7.229 29.615,0 41.461,-5.4215 5.922,-3.615 -9.872,-7.2292 -13.821,-10.8439 -13.82,-10.8435 -43.434,-25.302 -31.588,-50.6039 51.331,-104.8231 0,14.4582 59.228,-21.6877 15.795,-9.0365 0,-36.1457 11.846,-48.7968 3.949,-3.6146 9.872,1.8074 13.82,5.4221 3.949,3.6142 1.975,10.8435 5.923,14.4583 9.872,7.2289 21.717,9.0364 31.589,16.2656 7.897,5.4218 13.82,16.2654 23.691,19.88 9.872,1.8075 -17.768,-12.6511 -21.717,-21.6874 0,-1.8073 7.897,-1.8073 7.897,-5.4218 3.949,-25.3022 -1.975,-63.2554 -5.923,-61.4479 -9.871,0 -67.126,45.1822 -82.92,-7.2293 -7.897,-28.9163 49.357,-41.5674 65.152,-37.9528 13.82,1.8073 21.717,18.073 35.537,21.6875 3.948,0 -1.975,-10.8438 1.975,-12.651 3.948,-3.6146 11.845,0 15.794,1.8073 11.846,0 25.666,-1.8073 35.537,1.8075 25.666,7.2292 -7.897,59.6402 45.409,56.0256 9.871,-1.8073 15.794,-14.4583 13.82,-23.4948 0,-5.4217 -11.846,1.8073 -17.768,0 -5.923,-1.8075 -15.795,-3.6145 -15.795,-9.0364 0,-7.2289 23.692,-3.6145 15.795,-16.2652 -7.898,-10.844 -9.872,-21.6875 -1.975,-56.0264 v -3.6146 c -3.949,7.2293 -9.872,14.4585 -15.795,23.4948 -9.871,-9.0363 -27.639,-14.4585 -31.588,-25.302 -9.872,-32.5314 108.586,-110.2444 63.177,-23.4947 17.768,-14.4584 43.435,1.8073 49.357,-3.6145 9.872,-5.4222 -21.717,-5.4222 -25.665,-14.4585 -13.821,-30.7236 45.408,-25.3018 49.357,-30.7236 7.897,-16.2655 -53.306,-36.146 -53.306,-41.5679 1.975,-10.8435 29.614,14.4584 33.563,5.4219 7.897,-12.651 -17.769,-27.1094 -13.82,-41.5676 5.923,-14.4585 114.509,-5.422 116.483,0 3.949,5.4219 -49.357,93.9788 -47.383,99.4007 0,1.8075 1.975,1.8075 3.949,1.8075 -3.949,0 -5.923,0 -5.923,1.8074 3.948,5.422 15.794,-3.6146 21.717,0 25.666,16.2659 -33.563,23.4947 0,32.5312 11.846,3.6147 -7.897,19.8802 -9.872,30.7241 0,3.6145 -3.948,56.0259 29.615,25.302 5.923,-5.4217 0,-16.2657 1.975,-23.4947 1.974,-10.844 7.896,-18.0732 11.846,-27.1095 3.948,-10.8436 -17.769,1.8075 -11.846,-14.4584 11.846,-30.7238 43.434,-150.0048 65.151,-160.8485 0,0 13.82,46.9894 13.82,50.6042 -3.949,10.8435 -23.691,16.2655 -21.717,28.9167 1.974,7.229 19.743,-12.6512 25.666,-5.4219 7.897,9.0362 -7.898,32.5311 3.948,37.9529 13.821,9.0365 33.563,0 45.409,-9.0363 7.897,-7.2291 -17.769,-12.6512 -17.769,-21.6875 0,-12.6512 -5.923,-28.9167 1.975,-39.7606 5.923,-12.6508 25.666,-14.4585 35.537,-25.3019 3.949,-3.6146 -9.871,0 -13.82,-1.8073 -13.82,-5.4221 -37.511,-9.0366 -37.511,-23.4948 -1.975,-10.8437 29.614,1.8074 35.537,-7.2289 7.897,-12.6512 -9.872,-27.1097 -5.923,-39.7607 1.975,-9.0364 15.794,18.0732 25.666,12.651 15.794,-5.4218 27.64,-18.0728 59.228,1.8075 23.692,14.4583 -41.46,92.1718 -47.383,103.0153 -1.975,3.6147 11.846,-5.4218 13.821,-9.0363 11.845,-9.0365 17.768,-28.9166 31.588,-32.5315 9.871,-1.8074 3.948,16.2659 1.975,25.3023 -5.923,12.6512 -29.614,25.3019 -21.717,37.953 7.897,10.8439 27.64,-21.6875 39.486,-14.4582 1.974,1.8075 3.948,3.6147 3.948,5.422 3.949,-1.8074 11.846,3.6144 15.795,1.8074 11.845,-10.844 -17.769,-19.8804 -17.769,-19.8804 -1.975,-7.229 -3.949,-68.6766 3.948,-79.5206 35.538,-41.5676 59.229,37.9531 61.203,37.9531 128.329,5.4217 -65.151,-70.484 61.203,-34.3384 65.152,18.0727 17.769,19.8799 7.898,43.375 -1.975,3.6144 9.871,1.8075 13.82,0 11.845,-3.6149 21.717,-12.6512 33.562,-14.4583 3.949,0 0,7.2291 1.975,9.0363 5.923,3.6144 13.82,3.6144 19.743,5.422 1.975,1.8075 3.949,5.4217 7.897,7.229 9.872,7.2291 25.666,12.6508 33.563,23.4947 1.975,3.6146 -7.897,3.6146 -11.845,7.2292 -9.872,5.422 -23.692,7.2293 -29.615,16.2657 -11.846,14.4582 -1.975,39.7604 -17.768,46.9897 -43.435,19.8799 -96.741,-7.2293 -132.278,28.9164 -5.923,3.6145 11.846,-5.4219 19.743,-5.4219 9.871,0 17.769,1.8074 27.64,3.6147 1.975,1.8073 3.949,3.6144 5.923,3.6144 15.794,1.8075 37.511,-9.0364 47.383,3.6146 7.897,9.0364 -23.692,21.6876 -17.769,32.5312 5.923,9.0363 13.82,-25.302 25.666,-23.4948 13.82,3.6145 9.872,32.5311 3.949,50.6042 1.975,-3.6146 3.948,-5.4218 5.923,-7.2293 13.82,-5.4218 33.562,3.6147 49.357,-1.8075 3.949,-1.8073 -11.846,-7.229 -11.846,-12.6509 -1.975,-12.6513 0,-23.4948 3.948,-34.3385 1.975,-3.6145 -1.974,10.8437 3.949,10.8437 15.795,3.6142 31.589,0 47.383,-1.8075 h 5.923 z m -852.894,370.4942 z m 3.949,1.8075 z m 1.975,0 h 1.975 z m 3.949,1.8075 z m 1.974,0 z m 353.398,-554.8375 c 1.975,14.4582 -25.665,18.0727 -35.537,28.9163 -78.972,-70.484 27.64,-70.484 35.537,-28.9163 z m -300.092,140.9683 c 7.897,0 11.846,12.6508 17.769,9.0366 7.897,-5.422 -13.82,-25.3022 -5.923,-23.495 3.949,1.8075 3.949,10.8438 9.871,10.8438 3.949,-1.8074 -3.948,-10.8438 0,-12.651 17.769,-7.2289 9.872,37.9531 27.64,14.4582 3.949,-3.6146 -9.871,-10.8434 -5.922,-14.4582 11.845,-14.4582 31.588,-19.88 49.357,-30.7237 0,1.8075 -1.975,1.8075 -1.975,1.8075 0,1.8074 7.897,1.8074 7.897,3.6145 -1.975,7.2293 -9.871,14.4582 -13.82,21.6875 -15.794,39.7602 -37.511,56.0259 -84.894,63.2549 3.948,-10.8435 17.768,-23.4947 11.845,-34.3385 -1.974,-1.8075 -5.922,-3.6147 -9.871,-3.6147 0,-1.8073 -3.949,-5.4218 -1.975,-5.4218 z m -13.82,7.229 h -7.897 c -3.949,-1.8073 0,0 7.897,0 z m -118.457,128.3173 c 3.948,-7.2288 15.794,-10.8432 25.666,-14.4577 1.974,-1.8075 7.896,0 5.923,1.8074 -5.923,14.4578 -15.795,27.109 -23.692,39.7601 -1.975,-9.0366 -11.846,-18.073 -7.897,-27.1095 z m -37.512,45.1824 1.975,3.6148 c 0,1.8075 -1.975,3.6145 -1.975,5.4219 0,-3.6146 -1.975,-5.4219 0,-9.0367 z m -104.637,34.3386 c 15.794,-39.7603 173.738,-30.7238 37.512,27.1096 -9.872,-10.8438 -41.461,-14.4585 -37.512,-27.1096 z m -274.427,294.5885 c 3.949,3.6145 -7.896,7.2291 -5.922,12.651 3.948,19.8797 55.28,18.0727 -15.795,45.1821 -7.897,1.8074 -15.794,-7.2294 -25.665,-10.844 51.331,-37.9525 21.717,-43.3746 21.717,-32.5307 1.975,21.6871 -23.692,7.2288 -35.538,14.4581 -9.871,3.6142 -17.768,34.3385 -19.742,23.4947 -5.923,-30.724 45.408,-83.1351 80.945,-52.4112 z m -157.943,164.4629 c 3.949,-10.8437 -3.948,-30.7236 7.898,-32.5309 73.048,-12.6512 7.897,50.6039 -15.795,56.0257 0,-1.8074 -3.948,-1.8074 -3.948,-3.6146 3.948,-7.2292 9.871,-12.6509 11.845,-19.8802 z m -487.65,1031.9619 c 9.872,1.8075 3.949,14.4585 5.923,23.4951 -1.974,1.8075 -5.923,3.6143 -7.897,3.6143 -7.897,1.8074 -17.768,1.8074 -25.666,3.6146 -82.919,10.8437 25.666,-32.531 27.64,-30.724 z m -367.217,337.9631 c 7.897,-3.6145 17.768,0 27.64,1.8074 0,-1.8074 0,-3.6147 1.974,-3.6147 0,-1.8074 1.975,1.8074 1.975,3.6147 -1.975,1.8074 -3.948,1.8074 -5.922,3.6146 l 1.974,-1.8074 c -7.897,3.6145 -15.794,12.6512 -23.691,12.6512 -5.923,0 -7.897,-12.6512 -3.948,-16.2658 z m -128.3295,693.9991 c 1.9749,-1.8073 1.9749,-1.8073 3.949,-3.6143 3.9485,18.0728 11.8456,37.9532 1.9749,56.0256 -21.717,36.1457 -9.8713,-30.7237 -5.9231,-52.4113 z m 31.5888,-133.7393 v -1.8075 -1.8075 c 3.9488,3.6145 9.8716,5.4219 9.8716,9.0364 11.8456,77.7136 -31.5886,21.6878 -13.8201,-3.6145 0,0 0,1.8075 -1.9747,3.6145 1.9747,-1.8075 5.9226,-3.6145 5.9226,-5.4219 z m 758.1277,-1145.8214 c -7.897,1.8075 -13.82,3.6149 -19.743,3.6149 -13.82,-1.8074 3.949,-1.8074 19.743,-3.6149 z M 11878.019,1568.236 c -3.948,1.8075 -9.871,1.8075 -13.82,1.8075 5.923,0 17.769,-3.6148 13.82,-1.8075 z m -333.655,406.6397 h 1.975 z m 5.923,1.8075 h 3.948 z m 5.923,0 c 0,1.8073 0,1.8073 1.974,1.8073 -1.974,0 -1.974,0 -1.974,-1.8073 z m 1.974,1.8073 z"
         inkscape:connector-curvature="0"
         sodipodi:nodetypes="ccccccccccccccccccccccccscccccccccccccscccccsccccccccccccccccccccccsscccccccccccccccccccsccccscccccccscscsccccccccccccscccscccccccccccccccccccccccccccccccsccccccccccccccccccccccccccsccccccccccccccccccccccsccccccccccccccccccccccccccccccsccscccscscscccccccscccccccccccccccccccccccccccccccccccccccccccccccccsccccccccccccccccccccccccccccscccccccccccccccccsccccccccccccccccccccccccsccscccccccccccscccccccccscccccccccccccccsccccccccccccccccsccccccccscccccccccccccccccccccccccscccscscccccccccccccccccccccsccccccccccccccccccccccccccccccccccccscccccccccccccccccccccccccccccscccccccccccccccccccccccccccccccsccccccccccccccccccccccccccccccccccccccccccccccccccccccccccccccccccccccccccccccccccccscccccccccccccccccccccccccccccccc" />
      <path
         inkscape:export-ydpi="96"
         inkscape:export-xdpi="96"
         style="fill:none;fill-opacity:1;stroke:#c68da8;stroke-width:22;stroke-miterlimit:4;stroke-dasharray:none;stroke-opacity:1"
         id="lt-3"
         d="m 12671.82,4823.1994 c -23.691,3.6142 -23.672,34.3132 -35.518,46.9642 -15.794,21.6877 -15.776,-5.4211 -33.545,-1.8056 -9.871,1.8075 -13.807,14.4496 -23.678,16.2569 -1.975,1.8073 -61.169,-12.6453 -63.143,-10.8381 -11.846,0 -17.753,10.8371 -29.599,12.6443 -21.717,1.8075 -29.589,-16.2657 -47.357,0 -5.923,5.422 -3.943,14.4487 -9.866,18.0629 -7.898,9.0368 -15.779,-21.6744 -29.599,-23.4819 -7.897,0 -13.808,14.4494 -21.705,16.2571 -13.82,3.6142 -77.606,0 -91.426,3.6125 -23.691,5.4217 -86.814,41.5353 -102.608,59.6082 -7.897,10.8439 -5.915,27.089 -13.812,37.9326 -5.923,5.4218 -13.809,3.6128 -21.706,3.6128 1.975,3.6143 1.973,5.4178 3.947,7.225 13.82,46.9895 -9.877,18.039 9.866,63.221 1.975,3.6145 3.944,7.2231 7.893,10.8378 26.153,0.8531 25.281,40.0269 31.571,59.6084 1.975,10.8437 -5.921,21.67 -3.946,32.5136 1.975,3.6146 3.944,-9.0315 7.893,-9.0315 7.897,-1.8075 7.892,12.6412 9.866,18.0631 v 7.2253 c 5.923,-1.8075 7.89,-9.0317 13.812,-9.0317 5.923,1.8075 5.917,10.8358 11.84,14.4506 23.691,12.6506 63.787,10.8342 89.452,18.0631 3.949,1.8075 -1.976,7.2253 1.973,7.2253 29.614,0 57.209,-23.4862 84.849,-16.2569 7.897,1.8075 3.942,16.254 11.839,21.6759 1.975,1.8074 7.891,-3.6137 11.84,-1.8055 7.897,3.6148 15.782,9.0276 21.705,16.2569 11.846,18.0727 -29.622,66.8043 13.813,121.023 3.948,-3.6145 3.943,-10.8371 9.866,-12.6442 29.614,-9.0364 15.775,14.4464 35.518,21.6757 55.28,21.6874 33.525,-18.0884 69.062,28.9011 11.846,14.4584 0,34.3158 11.84,41.5449 23.691,14.4583 80.894,-14.4461 96.688,-21.6756 15.794,-5.4217 23.669,27.1023 41.437,12.6443 11.847,-7.2294 13.807,-25.2844 25.653,-32.5136 9.871,-5.4219 21.7,9e-4 31.571,-1.8056 9.872,-3.6148 -17.763,-23.478 -9.866,-30.7073 9.871,-10.8437 29.591,-7.2224 43.411,-12.6443 31.589,-16.2653 -11.851,-14.4397 9.866,-34.3201 5.923,-7.229 51.302,-27.1072 55.25,-3.6125 1.975,5.4219 -7.893,9.0288 -7.893,14.4506 -1.974,16.2657 37.49,3.6174 41.438,-5.419 17.769,-39.7602 -43.411,-28.8968 -43.411,-36.1261 -1.975,-7.2293 17.759,-57.8012 17.759,-59.6085 l -17.759,-50.5769 c 0,-1.8073 7.893,-1.8036 7.893,-5.4188 23.692,-66.8696 5.899,3.642 43.411,-50.5766 9.871,-10.8438 0,-28.8944 7.893,-41.5454 9.872,-12.651 39.458,5.426 51.304,-7.2253 5.923,-7.2293 -1.975,-18.0591 0,-25.2882 3.949,-5.422 13.811,-5.4163 15.786,-10.838 7.897,-25.3017 -57.225,7.234 -55.251,-9.0314 1.975,-27.1093 15.793,-50.5624 3.947,-77.6716 v -1.8055 c -5.923,1.8075 -11.837,1.8055 -17.759,1.8055 -45.409,-7.2292 -104.561,-74.0537 -142.072,-83.0902 -25.666,-7.2292 -51.29,7.2252 -76.956,7.2252 -25.666,0 -33.534,-57.8043 -53.277,-54.1893 z m -490.766,272.6544 c 1.151,8.4295 4.768,20.1706 2.631,34.922 -2.138,14.7517 -2.795,24.6863 -7.235,35.5242 -4.44,10.8378 -6.181,13.5944 -6.181,13.5944 l 10.149,5.5306 c 0,0 2.435,-3.0564 2.928,-5.7703 0.49,-2.7095 0.823,-5.1178 4.604,-7.2253 3.782,-2.1074 3.453,-3.0105 2.631,-6.623 -0.824,-3.6125 0,-4.5157 2.631,-10.2358 2.631,-5.72 3.288,-7.6769 1.314,-9.6336 -1.973,-1.957 -4.111,-4.516 -1.314,-9.0318 2.795,-4.5157 1.972,1.0532 1.314,-7.2251 -0.657,-8.279 1.811,-12.4936 -0.657,-20.4716 -1.851,-5.9831 -9.01,-14.7928 -9.843,-14.8715 -0.834,-0.072 -3.263,-0.5927 -2.975,1.5172 z"
         inkscape:connector-curvature="0" />
      <path
         inkscape:export-ydpi="96"
         inkscape:export-xdpi="96"
         style="fill:none;fill-opacity:1;stroke:#bcb8b3;stroke-width:22;stroke-miterlimit:4;stroke-dasharray:none;stroke-opacity:1"
         id="lv-1"
         d="m 12148.496,5002.0848 c 7.897,0 15.794,1.8075 21.717,-3.6145 7.897,-10.8437 5.923,-27.1092 13.82,-37.9533 15.794,-18.0727 78.972,-54.2186 102.663,-59.6403 13.82,-3.6144 76.998,0 90.817,-3.6144 7.898,-1.8073 13.821,-16.2658 21.718,-16.2658 13.82,1.8075 21.717,32.5312 29.614,23.4947 5.923,-3.6145 3.949,-12.6507 9.872,-18.0727 17.768,-16.2657 25.665,1.8073 47.383,0 11.845,-1.8075 17.768,-12.651 29.614,-12.651 1.975,-1.8075 61.203,12.651 63.177,10.8437 9.872,-1.8074 13.82,-14.4584 23.692,-16.2654 17.768,-3.615 17.768,23.4947 33.563,1.8073 11.845,-12.6509 11.845,-43.375 35.537,-46.9894 19.743,-3.6147 27.64,54.2187 53.305,54.2187 25.666,0 51.332,-14.4583 76.998,-7.2293 37.512,9.0367 96.74,75.9061 142.149,83.1354 49.357,7.2289 51.331,-61.4476 80.946,-59.6405 9.871,0 15.794,10.8435 23.691,10.8435 5.923,0 1.975,-12.6506 5.923,-14.4581 11.846,-3.6146 27.64,7.2294 37.512,0 0,0 9.871,-54.2188 13.819,-59.6404 3.949,-10.844 41.461,-37.9532 41.461,-39.7605 15.794,-52.4114 -41.461,-101.2083 -75.023,-126.5103 -13.821,-9.0364 13.82,-25.3021 -13.821,-28.9167 -9.871,-1.8074 -17.768,12.6513 -27.639,10.8438 -3.949,0 0,-5.4218 0,-9.0365 0,-1.8075 1.974,-5.4216 1.974,-7.229 0,-12.6509 3.949,-25.3019 1.975,-37.9531 -1.975,-5.4217 -15.794,-3.6145 -15.794,-9.0366 0,-23.4943 47.383,-37.9528 -17.769,-59.6405 -7.897,-1.8074 -19.742,-1.8074 -25.665,-7.2293 -5.924,-7.2292 3.948,-19.8797 -3.949,-23.4944 -7.897,-5.4218 -15.794,3.6147 -25.666,5.4217 -1.975,9.0365 -61.203,-10.8435 -69.1,-9.0362 0,0 -37.511,37.9529 -39.486,37.9529 -13.82,1.8073 -76.997,-36.1456 -84.894,-46.9894 -3.949,-3.6147 3.948,-14.4584 -1.975,-16.2658 -11.846,-3.6146 -23.691,7.2293 -35.537,3.6148 -5.923,-1.8074 -3.949,-12.6512 -9.871,-14.4584 -5.924,0 -11.846,10.8436 -17.769,9.0365 -11.846,-3.6148 -33.563,-30.724 -51.332,-30.724 -3.948,0 0,5.4217 0,9.0365 0,1.8075 1.975,1.8075 1.975,3.6145 5.923,23.4949 -15.794,-10.8438 -27.64,-3.6145 -17.768,12.651 -78.971,65.0621 -94.766,68.6766 l -3.948,-1.8074 c 1.975,3.6145 1.975,9.0362 1.975,14.458 7.897,37.9537 59.229,90.3649 47.383,131.9325 -5.923,25.3019 -53.306,77.7134 -82.92,81.3279 -11.846,1.8074 -19.743,-9.0363 -29.615,-10.8438 -19.743,-5.4217 -23.691,7.2293 -35.537,-10.8435 -13.82,-18.0732 -13.82,-43.3751 -31.589,-57.8334 -17.768,-16.2656 -59.228,-23.4946 -78.971,-39.7604 -11.846,-9.0364 0,-32.5312 -11.846,-37.9532 -17.769,-7.2289 -31.589,18.0731 -47.383,27.1096 -19.743,14.4582 -47.383,18.0728 -65.151,36.1456 -47.384,45.1823 -5.923,97.5938 -23.692,142.7759 -5.923,18.0728 -31.588,25.3019 -37.511,43.3749 -3.949,10.8437 5.923,21.6875 5.923,34.3387 0,12.651 -5.923,25.302 -1.975,36.1458 0,1.8075 1.975,3.6144 3.948,3.6144 0,0 0,0 0,0 -19.742,21.6874 11.846,75.9064 23.692,101.2081 z"
         inkscape:connector-curvature="0" />
      <path
         inkscape:export-ydpi="96"
         inkscape:export-xdpi="96"
         style="fill:none;fill-opacity:1;stroke:#6f0f4c;stroke-width:22;stroke-miterlimit:4;stroke-dasharray:none;stroke-opacity:1"
         id="ee-8"
         d="m 12904.862,4029.8422 c -1.975,7.229 -5.916,14.4468 -19.736,21.6757 -17.769,10.8439 -203.27,12.646 -234.859,9.0316 -5.923,0 -9.865,-9.0327 -17.762,-7.2252 -37.512,7.229 47.388,27.0984 -15.789,19.8692 -9.871,-1.8073 -11.838,-21.6767 -21.71,-19.8692 -7.897,1.8074 5.925,16.2527 1.973,23.482 -0.915,1.6767 -2.086,3.162 -3.289,4.8169 -3.872,-1.3783 -7.315,-3.6849 -11.842,-7.8274 -10.526,-9.6338 -7.894,7.2253 1.315,15.6548 0.723,0.6632 1.304,1.1999 1.972,1.8054 -5.637,5.2317 -12.024,9.7169 -18.42,12.6444 -2.998,1.3711 -6.129,2.4969 -9.21,3.6125 -10.473,-2.1051 -13.097,0.7036 -20.394,-1.2042 -3.106,-0.8129 -3.965,2.6883 -2.632,6.6232 -10.186,1.3884 -20.51,1.7325 -30.919,0 -7.897,-1.8073 -13.813,-16.2586 -19.736,-12.6443 -9.397,5.1612 11.077,23.1909 4.605,26.4926 l 5.263,6.6233 c -3.527,5.26 -18.041,3.5548 -30.262,5.419 -15.789,2.4083 -28.946,1.2042 -30.262,9.6336 -1.314,8.4295 -13.157,22.8801 -27.631,19.2673 -14.473,-3.6125 -9.21,12.0423 2.632,20.4715 11.842,8.4295 -34.209,7.2253 -43.419,16.859 -9.21,9.6338 -42.104,12.0421 -32.894,22.8801 9.21,10.8378 14.473,18.063 3.947,25.2883 -10.525,7.2253 -1.314,27.6968 5.263,21.6759 6.579,-6.0211 30.263,-3.6126 19.736,2.4084 -10.525,6.0211 -19.736,12.042 -11.841,30.1051 7.894,18.0634 2.631,21.6759 18.42,13.2464 15.789,-8.4294 31.578,0 15.789,6.0212 -15.789,6.0209 -24.999,10.8378 -13.157,27.6968 11.841,16.8589 21.051,21.6759 26.314,37.3304 5.263,15.6548 13.158,22.88 34.21,24.0843 21.051,1.2042 24.999,14.4505 36.84,14.4505 11.842,0 19.736,-14.4505 17.105,-30.1053 -2.168,-12.8958 18.057,-22.1947 35.525,-9.0315 1.745,1.619 3.346,3.3302 5.262,5.419 3.949,5.4217 -9.868,10.8339 -9.868,18.063 0,14.4584 7.895,28.8934 7.895,43.3516 0,36.146 -15.791,16.2394 -11.842,48.7705 l 3.947,1.8054 c 15.795,-3.6146 77.623,-55.9891 95.391,-68.6401 11.846,-7.2293 33.553,27.1075 27.631,3.6128 0,-1.8075 -1.973,-1.8056 -1.973,-3.6128 0,-3.6147 -3.949,-9.0315 0,-9.0315 17.769,0 39.468,27.0927 51.314,30.7074 5.923,1.8073 11.839,-9.0316 17.762,-9.0316 5.923,1.8074 3.945,12.6434 9.868,14.4505 11.846,3.6144 23.68,-7.2271 35.525,-3.6125 5.923,1.8074 -1.973,12.642 1.973,16.2568 7.896,10.8435 71.045,48.7714 84.865,46.9641 1.974,0 39.472,-37.9326 39.472,-37.9326 7.783,-1.7823 65.525,17.7284 69.076,9.6338 0.06,-0.1539 -0.06,-0.433 0,-0.6014 3.279,-9.4261 -9.767,-33.8098 -3.947,-39.1369 3.948,-3.6144 13.814,-3.6097 15.788,-9.0315 1.975,-3.6147 -5.92,-5.4161 -5.92,-10.8378 -1.975,-3.6147 -1.975,-9.0296 0,-12.6443 2.961,-2.2589 5.561,-3.575 7.894,-4.8168 1.702,0.4791 6.859,1.5998 7.236,1.8056 3.024,1.7036 4.639,-0.1727 7.895,-0.6014 2.442,-0.3194 1.528,-3.3035 1.972,-5.4188 0.143,-0.705 0.792,-1.2733 1.315,-1.8056 2.092,-2.1285 -1.429,-6.6531 -3.29,-9.6335 -1.861,-2.9813 -5.144,-3.8621 -7.236,-3.0105 -2.093,0.8503 -6.499,1.1021 -7.895,-0.6014 -1.396,-1.7036 -3.17,-0.846 -5.262,-3.6126 -2.095,-2.7674 -0.501,-9.6274 -3.29,-13.2462 -2.791,-3.6189 -5.681,1.8804 -9.868,0.6013 -4.185,-1.2761 -3.482,-12.2853 -3.947,-15.0525 -0.464,-2.7675 -26.973,-29.3207 -26.973,-32.5138 0,-3.1933 -1.043,-9.9433 -1.972,-15.0525 -0.93,-5.109 0.657,-12.6745 0.657,-15.6548 0,-2.9802 -48.875,-93.7094 -49.34,-97.5411 -0.466,-3.8318 18.832,-33.8755 26.973,-45.1578 h 1.972 c 4.05,-4.7385 7.996,-9.2779 9.868,-13.8483 l 1.973,-40.3412 c 0.188,-0.4734 0.495,-0.6921 0.657,-1.2043 1.861,-5.7475 -0.578,-10.2293 -1.973,-13.8483 -1.396,-3.6188 5.761,-8.9227 8.552,-10.8379 2.791,-1.9151 13.343,-7.1521 17.763,-8.4295 4.419,-1.2762 7.236,-14.6507 7.236,-21.6756 0,-2.6345 -2.47,-4.715 -5.263,-6.6233 0.775,-3.3111 -4.692,-7.5742 -23.025,-18.0631 z m -462.481,75.263 c -2.631,25.2885 14.473,14.4504 14.473,14.4504 z m -123.021,161.9663 c -5.125,11.9607 -35.971,-5.3375 -26.973,14.4506 8.276,11.7187 42.247,6.0979 30.92,-10.2358 -1.051,-1.5825 -2.38,-3.0399 -3.947,-4.2148 z m -97.364,7.2253 c -1.427,-0.1151 -2.899,0.4446 -4.606,1.2042 -2.228,6.2582 -0.47,19.0915 -11.841,16.859 4.51,7.8486 1.567,15.5548 -3.947,19.2675 -0.189,13.5315 -20.71,-0.9812 -28.946,7.8274 -7.742,2.7172 -25.296,4.7734 -11.184,12.6441 15.031,8.4171 28.961,-7.3847 43.419,-1.2042 10.995,6.2548 17.145,19.1427 15.131,30.7073 9.709,16.1956 35.689,2.0752 33.551,-13.8485 3.532,-8.89 13.113,2.5437 14.473,-8.4295 3.073,-11.7679 15.077,-19.5372 25.657,-18.6653 2.543,-15.3627 -16.461,-19.1496 -26.315,-26.4926 -10.836,-10.2935 -31.401,4.4622 -36.84,-11.44 -1.392,-4.146 -4.271,-8.108 -8.552,-8.4294 z m 96.706,80.08 c -6.192,9.6155 -13.879,24.985 4.605,27.0947 10.229,5.6482 33.457,11.0975 32.236,-6.0211 -2.531,-16.0628 -23.297,-17.5114 -36.841,-21.0736 z m -34.209,19.8694 c -9.896,1.0345 -12.047,15.9518 -23.026,12.6443 -9.019,9.4268 -18.915,-14.4244 -23.683,1.8054 -2.989,13.0415 -27.859,5.8767 -26.972,21.0738 10.935,6.4164 -7.752,19.9761 -5.921,6.623 -7.599,-10.5223 -17.507,10.7787 -13.815,18.0634 1.93,9.5577 -8.108,8.9588 -9.868,0.6014 -4.752,-8.7248 -17.115,-12.6018 -20.394,-3.0106 -19.173,0.987 8.403,8.1943 11.184,14.4506 6.483,4.6435 8.006,14.1398 -0.658,16.859 5.675,9.827 -15.568,-1.3351 -5.263,8.4292 0.322,3.473 -13.184,4.7615 -3.289,10.2359 11.628,5.9625 26.237,3.9123 34.209,15.6548 6.614,5.2097 24.51,-0.1151 17.105,13.2462 -3.933,6.12 -0.41,15.4226 -10.526,12.0421 -7.049,8.0657 -9.053,22.4669 -7.895,31.9116 6.933,16.5905 21.156,-1.8535 23.684,-10.8378 1.513,-16.77 3.598,-33.7369 3.289,-50.5769 2.762,-11.5796 18.571,-13.1356 28.288,-17.4611 8.276,-1.8112 20.738,-10.3011 28.947,-0.6014 12.42,-0.9697 -6.854,-21.1087 9.21,-15.0527 13.368,-6.6809 18.421,-23.5014 29.604,-34.3198 7.568,-7.5345 13.768,-26.2011 26.315,-14.4506 4.48,-3.3096 -3.287,-8.547 5.92,-7.2253 8.311,-11.9377 -17.761,-9.3688 -23.683,-16.859 -11.125,-6.8309 -24.695,-12.0325 -38.156,-12.6441 -1.773,-0.5208 -3.192,-0.7496 -4.605,-0.6014 z m -121.706,79.4779 c -9.733,0.7136 -9.485,9.8097 0,4.2148 2.517,-0.7554 4.554,-4.8429 0,-4.2148 z m 299.33,0.6014 c -10.526,0 -10.526,14.4506 -3.947,14.4506 6.579,0 3.947,-14.4506 3.947,-14.4506 z m -205.912,32.5138 c -11.453,1.9036 5.627,21.053 2.631,4.8169 -0.237,-1.8326 -0.907,-3.6684 -2.631,-4.8169 z m 112.495,63.8241 c -4.934,0.9035 -5.921,1.2042 -2.631,4.8169 3.289,3.612 2.631,4.5161 7.236,4.8167 4.605,0.3007 1.973,-7.8283 -4.605,-9.6336 z"
         inkscape:connector-curvature="0" />
    </g>
  </g>
  <g
     inkscape:groupmode="layer"
     id="layer1"
     inkscape:label="Layer 1"
     style="display:inline"
     transform="translate(0,4240)" />
</svg>
