<?xml version="1.0" encoding="UTF-8" standalone="no"?>
<svg
   xmlns:dc="http://purl.org/dc/elements/1.1/"
   xmlns:cc="http://creativecommons.org/ns#"
   xmlns:rdf="http://www.w3.org/1999/02/22-rdf-syntax-ns#"
   xmlns:svg="http://www.w3.org/2000/svg"
   xmlns="http://www.w3.org/2000/svg"
   xmlns:sodipodi="http://sodipodi.sourceforge.net/DTD/sodipodi-0.dtd"
   xmlns:inkscape="http://www.inkscape.org/namespaces/inkscape"
   version="1.1"
   width="600"
   height="200"
   shape-rendering="crispEdges"
   id="svg23195"
   sodipodi:docname="NRSE_logo.svg"
   inkscape:export-filename="/home/samumantha/Documents/NRSE_logo/NRSE_black.png"
   inkscape:export-xdpi="300"
   inkscape:export-ydpi="300"
   inkscape:version="0.92.5 (2060ec1f9f, 2020-04-08)">
  <metadata
     id="metadata23201">
    <rdf:RDF>
      <cc:Work
         rdf:about="">
        <dc:format>image/svg+xml</dc:format>
        <dc:type
           rdf:resource="http://purl.org/dc/dcmitype/StillImage" />
        <dc:title></dc:title>
      </cc:Work>
    </rdf:RDF>
  </metadata>
  <defs
     id="defs23199" />
  <sodipodi:namedview
     pagecolor="#ffffff"
     bordercolor="#666666"
     borderopacity="1"
     objecttolerance="10"
     gridtolerance="10"
     guidetolerance="10"
     inkscape:pageopacity="0"
     inkscape:pageshadow="2"
     inkscape:window-width="1848"
     inkscape:window-height="1016"
     id="namedview23197"
     showgrid="false"
     inkscape:zoom="2.1666667"
     inkscape:cx="321.36813"
     inkscape:cy="121.94093"
     inkscape:window-x="72"
     inkscape:window-y="27"
     inkscape:window-maximized="1"
     inkscape:current-layer="layer1" />
  <g
     inkscape:groupmode="layer"
     id="layer2"
     inkscape:label="Layer 2"
     style="display:inline" />
  <g
     inkscape:groupmode="layer"
     id="layer1"
     inkscape:label="Layer 1"
     style="display:inline">
    <path
       d="m 178,11 c 0,1 0,2 0,3 -1,0 -2,0 -3,0 0,1 0,2 0,3 -1,0 -2,0 -3,0 0,2 0,4 0,6 2,0 4,0 6,0 0,-1 0,-2 0,-3 2,0 4,0 6,0 0,1 0,2 0,3 2,0 4,0 6,0 0,-2 0,-4 0,-6 -1,0 -2,0 -3,0 0,-1 0,-2 0,-3 -1,0 -2,0 -3,0 0,-1 0,-2 0,-3 -2,0 -4,0 -6,0 z m 6,12 c -2,0 -4,0 -6,0 0,5 0,10 0,15 -1,0 -2,0 -3,0 0,-1 0,-2 0,-3 -1,0 -2,0 -3,0 0,-1 0,-2 0,-3 -1,0 -2,0 -3,0 0,-1 0,-2 0,-3 -1,0 -2,0 -3,0 0,-1 0,-2 0,-3 -2,0 -4,0 -6,0 0,2 0,4 0,6 1,0 2,0 3,0 0,1 0,2 0,3 1,0 2,0 3,0 0,1 0,2 0,3 1,0 2,0 3,0 0,1 0,2 0,3 1,0 2,0 3,0 0,1 0,2 0,3 1,0 2,0 3,0 0,1 0,2 0,3 1,0 2,0 3,0 0,2 0,4 0,6 -1,0 -2,0 -3,0 0,-1 0,-2 0,-3 -1,0 -2,0 -3,0 0,-1 0,-2 0,-3 -2,0 -4,0 -6,0 0,2 0,4 0,6 1,0 2,0 3,0 0,1 0,2 0,3 1,0 2,0 3,0 0,1 0,2 0,3 1,0 2,0 3,0 0,1 0,2 0,3 1,0 2,0 3,0 0,4.333333 0,8.666667 0,13 -1,0 -2,0 -3,0 0,-1 0,-2 0,-3 -1,0 -2,0 -3,0 0,-1 0,-2 0,-3 -1,0 -2,0 -3,0 0,-1 0,-2 0,-3 -1,0 -2,0 -3,0 0,-1 0,-2 0,-3 -1,0 -2,0 -3,0 0,-1 0,-2 0,-3 -1,0 -2,0 -3,0 0,-1 0,-2 0,-3 -1,0 -2,0 -3,0 0,-1 0,-2 0,-3 -1,0 -2,0 -3,0 0,-1 0,-2 0,-3 -1,0 -2,0 -3,0 0,-1 0,-2 0,-3 1,0 2,0 3,0 0,-2 0,-4 0,-6 -2,0 -4,0 -6,0 0,1 0,2 0,3 -1,0 -2,0 -3,0 0,-1 0,-2 0,-3 -2,0 -4,0 -6,0 0,2 0,4 0,6 1,0 2,0 3,0 0,1 0,2 0,3 -1,0 -2,0 -3,0 0,2 0,4 0,6 2,0 4,0 6,0 0,-1 0,-2 0,-3 1,0 2,0 3,0 0,1 0,2 0,3 1,0 2,0 3,0 0,1 0,2 0,3 1,0 2,0 3,0 0,1 0,2 0,3 1,0 2,0 3,0 0,1 0,2 0,3 1,0 2,0 3,0 0,1 0,2 0,3 1,0 2,0 3,0 0,1 0,2 0,3 1,0 2,0 3,0 0,1 0,2 0,3 1,0 2,0 3,0 0,1 0,2 0,3 1,0 2,0 3,0 0,1 0,2 0,3 -4,0 -8,0 -12,0 0,-1 0,-2 0,-3 -1,0 -2,0 -3,0 0,-1 0,-2 0,-3 -1,0 -2,0 -3,0 0,-1 0,-2 0,-3 -1,0 -2,0 -3,0 0,-1 0,-2 0,-3 -2,0 -4,0 -6,0 0,2 0,4 0,6 1,0 2,0 3,0 0,1 0,2 0,3 1,0 2,0 3,0 0,1 0,2 0,3 -2,0 -4,0 -6,0 0,-1 0,-2 0,-3 -0.66667,0 -1.33333,0 -2,0 0,-1 0,-2 0,-3 -1,0 -2,0 -3,0 0,-1 0,-2 0,-3 -1,0 -2,0 -3,0 0,-1 0,-2 0,-3 -1,0 -2,0 -3,0 0,-1 0,-2 0,-3 -1,0 -2,0 -3,0 0,-1 0,-2 0,-3 -2,0 -4,0 -6,0 0,2 0,4 0,6 1,0 2,0 3,0 0,1 0,2 0,3 1,0 2,0 3,0 0,1 0,2 0,3 1,0 2,0 3,0 0,1 0,2 0,3 1,0 2,0 3,0 0,1 0,2 0,3 -4.66667,0 -9.33333,0 -14,0 0,2 0,4 0,6 4.66667,0 9.33333,0 14,0 0,1 0,2 0,3 -1,0 -2,0 -3,0 0,1 0,2 0,3 -1,0 -2,0 -3,0 0,1 0,2 0,3 -1,0 -2,0 -3,0 0,1 0,2 0,3 -1,0 -2,0 -3,0 0,2 0,4 0,6 2,0 4,0 6,0 0,-1 0,-2 0,-3 1,0 2,0 3,0 0,-1 0,-2 0,-3 1,0 2,0 3,0 0,-1 0,-2 0,-3 1,0 2,0 3,0 0,-1 0,-2 0,-3 1,0 2,0 3,0 0,-1 0,-2 0,-3 0.66667,0 1.33333,0 2,0 0,-1 0,-2 0,-3 2,0 4,0 6,0 0,1 0,2 0,3 -1,0 -2,0 -3,0 0,1 0,2 0,3 -1,0 -2,0 -3,0 0,2 0,4 0,6 2,0 4,0 6,0 0,-1 0,-2 0,-3 1,0 2,0 3,0 0,-1 0,-2 0,-3 1,0 2,0 3,0 0,-1 0,-2 0,-3 1,0 2,0 3,0 0,-1 0,-2 0,-3 4,0 8,0 12,0 0,1 0,2 0,3 -1,0 -2,0 -3,0 0,1 0,2 0,3 -1,0 -2,0 -3,0 0,1 0,2 0,3 -1,0 -2,0 -3,0 0,1 0,2 0,3 -1,0 -2,0 -3,0 0,1 0,2 0,3 -1,0 -2,0 -3,0 0,1 0,2 0,3 -1,0 -2,0 -3,0 0,1 0,2 0,3 -1,0 -2,0 -3,0 0,1 0,2 0,3 -1,0 -2,0 -3,0 0,1 0,2 0,3 -1,0 -2,0 -3,0 0,-1 0,-2 0,-3 -2,0 -4,0 -6,0 0,2 0,4 0,6 1,0 2,0 3,0 0,1 0,2 0,3 -1,0 -2,0 -3,0 0,2 0,4 0,6 2,0 4,0 6,0 0,-1 0,-2 0,-3 1,0 2,0 3,0 0,1 0,2 0,3 2,0 4,0 6,0 0,-2 0,-4 0,-6 -1,0 -2,0 -3,0 0,-1 0,-2 0,-3 1,0 2,0 3,0 0,-1 0,-2 0,-3 1,0 2,0 3,0 0,-1 0,-2 0,-3 1,0 2,0 3,0 0,-1 0,-2 0,-3 1,0 2,0 3,0 0,-1 0,-2 0,-3 1,0 2,0 3,0 0,-1 0,-2 0,-3 1,0 2,0 3,0 0,-1 0,-2 0,-3 1,0 2,0 3,0 0,-1 0,-2 0,-3 1,0 2,0 3,0 0,-1 0,-2 0,-3 1,0 2,0 3,0 0,4.333333 0,8.66667 0,13 -1,0 -2,0 -3,0 0,1 0,2 0,3 -1,0 -2,0 -3,0 0,1 0,2 0,3 -1,0 -2,0 -3,0 0,1 0,2 0,3 -1,0 -2,0 -3,0 0,2 0,4 0,6 2,0 4,0 6,0 0,-1 0,-2 0,-3 1,0 2,0 3,0 0,-1 0,-2 0,-3 1,0 2,0 3,0 0,2 0,4 0,6 -1,0 -2,0 -3,0 0,1 0,2 0,3 -1,0 -2,0 -3,0 0,1 0,2 0,3 -1,0 -2,0 -3,0 0,1 0,2 0,3 -1,0 -2,0 -3,0 0,1 0,2 0,3 -1,0 -2,0 -3,0 0,1 0,2 0,3 -1,0 -2,0 -3,0 0,2 0,4 0,6 2,0 4,0 6,0 0,-1 0,-2 0,-3 1,0 2,0 3,0 0,-1 0,-2 0,-3 1,0 2,0 3,0 0,-1 0,-2 0,-3 1,0 2,0 3,0 0,-1 0,-2 0,-3 1,0 2,0 3,0 0,5 0,10 0,15 2,0 4,0 6,0 0,-5 0,-10 0,-15 1,0 2,0 3,0 0,1 0,2 0,3 1,0 2,0 3,0 0,1 0,2 0,3 1,0 2,0 3,0 0,1 0,2 0,3 1,0 2,0 3,0 0,1 0,2 0,3 2,0 4,0 6,0 0,-2 0,-4 0,-6 -1,0 -2,0 -3,0 0,-1 0,-2 0,-3 -1,0 -2,0 -3,0 0,-1 0,-2 0,-3 -1,0 -2,0 -3,0 0,-1 0,-2 0,-3 -1,0 -2,0 -3,0 0,-1 0,-2 0,-3 -1,0 -2,0 -3,0 0,-1 0,-2 0,-3 -1,0 -2,0 -3,0 0,-2 0,-4 0,-6 1,0 2,0 3,0 0,1 0,2 0,3 1,0 2,0 3,0 0,1 0,2 0,3 2,0 4,0 6,0 0,-2 0,-4 0,-6 -1,0 -2,0 -3,0 0,-1 0,-2 0,-3 -1,0 -2,0 -3,0 0,-1 0,-2 0,-3 -1,0 -2,0 -3,0 0,-1 0,-2 0,-3 -1,0 -2,0 -3,0 0,-4.33333 0,-8.666667 0,-13 1,0 2,0 3,0 0,1 0,2 0,3 1,0 2,0 3,0 0,1 0,2 0,3 1,0 2,0 3,0 0,1 0,2 0,3 1,0 2,0 3,0 0,1 0,2 0,3 1,0 2,0 3,0 0,1 0,2 0,3 1,0 2,0 3,0 0,1 0,2 0,3 1,0 2,0 3,0 0,1 0,2 0,3 1,0 2,0 3,0 0,1 0,2 0,3 1,0 2,0 3,0 0,1 0,2 0,3 -1,0 -2,0 -3,0 0,2 0,4 0,6 2,0 4,0 6,0 0,-1 0,-2 0,-3 1,0 2,0 3,0 0,1 0,2 0,3 2,0 4,0 6,0 0,-2 0,-4 0,-6 -1,0 -2,0 -3,0 0,-1 0,-2 0,-3 1,0 2,0 3,0 0,-2 0,-4 0,-6 -2,0 -4,0 -6,0 0,1 0,2 0,3 -1,0 -2,0 -3,0 0,-1 0,-2 0,-3 -1,0 -2,0 -3,0 0,-1 0,-2 0,-3 -1,0 -2,0 -3,0 0,-1 0,-2 0,-3 -1,0 -2,0 -3,0 0,-1 0,-2 0,-3 -1,0 -2,0 -3,0 0,-1 0,-2 0,-3 -1,0 -2,0 -3,0 0,-1 0,-2 0,-3 -1,0 -2,0 -3,0 0,-1 0,-2 0,-3 -1,0 -2,0 -3,0 0,-1 0,-2 0,-3 -1,0 -2,0 -3,0 0,-1 0,-2 0,-3 4,0 8,0 12,0 0,1 0,2 0,3 1,0 2,0 3,0 0,1 0,2 0,3 1,0 2,0 3,0 0,1 0,2 0,3 1,0 2,0 3,0 0,1 0,2 0,3 2,0 4,0 6,0 0,-2 0,-4 0,-6 -1,0 -2,0 -3,0 0,-1 0,-2 0,-3 -1,0 -2,0 -3,0 0,-1 0,-2 0,-3 2,0 4,0 6,0 0,1 0,2 0,3 0.66667,0 1.33333,0 2,0 0,1 0,2 0,3 1,0 2,0 3,0 0,1 0,2 0,3 1,0 2,0 3,0 0,1 0,2 0,3 1,0 2,0 3,0 0,1 0,2 0,3 1,0 2,0 3,0 0,1 0,2 0,3 2,0 4,0 6,0 0,-2 0,-4 0,-6 -1,0 -2,0 -3,0 0,-1 0,-2 0,-3 -1,0 -2,0 -3,0 0,-1 0,-2 0,-3 -1,0 -2,0 -3,0 0,-1 0,-2 0,-3 -1,0 -2,0 -3,0 0,-1 0,-2 0,-3 4.66667,0 9.33333,0 14,0 0,-2 0,-4 0,-6 -4.66667,0 -9.33333,0 -14,0 0,-1 0,-2 0,-3 1,0 2,0 3,0 0,-1 0,-2 0,-3 1,0 2,0 3,0 0,-1 0,-2 0,-3 1,0 2,0 3,0 0,-1 0,-2 0,-3 1,0 2,0 3,0 0,-2 0,-4 0,-6 -2,0 -4,0 -6,0 0,1 0,2 0,3 -1,0 -2,0 -3,0 0,1 0,2 0,3 -1,0 -2,0 -3,0 0,1 0,2 0,3 -1,0 -2,0 -3,0 0,1 0,2 0,3 -1,0 -2,0 -3,0 0,1 0,2 0,3 -0.66667,0 -1.33333,0 -2,0 0,1 0,2 0,3 -2,0 -4,0 -6,0 0,-1 0,-2 0,-3 1,0 2,0 3,0 0,-1 0,-2 0,-3 1,0 2,0 3,0 0,-2 0,-4 0,-6 -2,0 -4,0 -6,0 0,1 0,2 0,3 -1,0 -2,0 -3,0 0,1 0,2 0,3 -1,0 -2,0 -3,0 0,1 0,2 0,3 -1,0 -2,0 -3,0 0,1 0,2 0,3 -4,0 -8,0 -12,0 0,-1 0,-2 0,-3 1,0 2,0 3,0 0,-1 0,-2 0,-3 1,0 2,0 3,0 0,-1 0,-2 0,-3 1,0 2,0 3,0 0,-1 0,-2 0,-3 1,0 2,0 3,0 0,-1 0,-2 0,-3 1,0 2,0 3,0 0,-1 0,-2 0,-3 1,0 2,0 3,0 0,-1 0,-2 0,-3 1,0 2,0 3,0 0,-1 0,-2 0,-3 1,0 2,0 3,0 0,-1 0,-2 0,-3 1,0 2,0 3,0 0,1 0,2 0,3 2,0 4,0 6,0 0,-2 0,-4 0,-6 -1,0 -2,0 -3,0 0,-1 0,-2 0,-3 1,0 2,0 3,0 0,-2 0,-4 0,-6 -2,0 -4,0 -6,0 0,1 0,2 0,3 -1,0 -2,0 -3,0 0,-1 0,-2 0,-3 -2,0 -4,0 -6,0 0,2 0,4 0,6 1,0 2,0 3,0 0,1 0,2 0,3 -1,0 -2,0 -3,0 0,1 0,2 0,3 -1,0 -2,0 -3,0 0,1 0,2 0,3 -1,0 -2,0 -3,0 0,1 0,2 0,3 -1,0 -2,0 -3,0 0,1 0,2 0,3 -1,0 -2,0 -3,0 0,1 0,2 0,3 -1,0 -2,0 -3,0 0,1 0,2 0,3 -1,0 -2,0 -3,0 0,1 0,2 0,3 -1,0 -2,0 -3,0 0,1 0,2 0,3 -1,0 -2,0 -3,0 0,-4.333333 0,-8.666667 0,-13 1,0 2,0 3,0 0,-1 0,-2 0,-3 1,0 2,0 3,0 0,-1 0,-2 0,-3 1,0 2,0 3,0 0,-1 0,-2 0,-3 1,0 2,0 3,0 0,-2 0,-4 0,-6 -2,0 -4,0 -6,0 0,1 0,2 0,3 -1,0 -2,0 -3,0 0,1 0,2 0,3 -1,0 -2,0 -3,0 0,-2 0,-4 0,-6 1,0 2,0 3,0 0,-1 0,-2 0,-3 1,0 2,0 3,0 0,-1 0,-2 0,-3 1,0 2,0 3,0 0,-1 0,-2 0,-3 1,0 2,0 3,0 0,-1 0,-2 0,-3 1,0 2,0 3,0 0,-1 0,-2 0,-3 1,0 2,0 3,0 0,-2 0,-4 0,-6 -2,0 -4,0 -6,0 0,1 0,2 0,3 -1,0 -2,0 -3,0 0,1 0,2 0,3 -1,0 -2,0 -3,0 0,1 0,2 0,3 -1,0 -2,0 -3,0 0,1 0,2 0,3 -1,0 -2,0 -3,0 0,-5 0,-10 0,-15 z m 55,58 c 1,0 2,0 3,0 0,2 0,4 0,6 -1,0 -2,0 -3,0 0,2 0,4 0,6 2,0 4,0 6,0 0,-1 0,-2 0,-3 1,0 2,0 3,0 0,-1 0,-2 0,-3 1,0 2,0 3,0 0,-2 0,-4 0,-6 -1,0 -2,0 -3,0 0,-1 0,-2 0,-3 -1,0 -2,0 -3,0 0,-1 0,-2 0,-3 -2,0 -4,0 -6,0 0,2 0,4 0,6 z m -55,64 c 0,1 0,2 0,3 -2,0 -4,0 -6,0 0,-1 0,-2 0,-3 -2,0 -4,0 -6,0 0,2 0,4 0,6 1,0 2,0 3,0 0,1 0,2 0,3 1,0 2,0 3,0 0,1 0,2 0,3 2,0 4,0 6,0 0,-1 0,-2 0,-3 1,0 2,0 3,0 0,-1 0,-2 0,-3 1,0 2,0 3,0 0,-2 0,-4 0,-6 -2,0 -4,0 -6,0 z M 123,87 c -1,0 -2,0 -3,0 0,-2 0,-4 0,-6 1,0 2,0 3,0 0,-2 0,-4 0,-6 -2,0 -4,0 -6,0 0,1 0,2 0,3 -1,0 -2,0 -3,0 0,1 0,2 0,3 -1,0 -2,0 -3,0 0,2 0,4 0,6 1,0 2,0 3,0 0,1 0,2 0,3 1,0 2,0 3,0 0,1 0,2 0,3 2,0 4,0 6,0 0,-2 0,-4 0,-6 z M 268,27 c 0,16 0,32 0,48 2,0 4,0 6,0 0,-10.333333 0,-20.666667 0,-31 1,0 2,0 3,0 0,1 0,2 0,3 1,0 2,0 3,0 0,1 0,2 0,3 1,0 2,0 3,0 0,1 0,2 0,3 1,0 2,0 3,0 0,1 0,2 0,3 1,0 2,0 3,0 0,1 0,2 0,3 1,0 2,0 3,0 0,5.666667 0,11.333333 0,17 2,0 4,0 6,0 0,-16.333333 0,-32.666667 0,-49 -2,0 -4,0 -6,0 0,7.666667 0,15.333333 0,23 -1,0 -2,0 -3,0 0,-1 0,-2 0,-3 -1,0 -2,0 -3,0 0,-1 0,-2 0,-3 -1,0 -2,0 -3,0 0,-1 0,-2 0,-3 -1,0 -2,0 -3,0 0,-1 0,-2 0,-3 -1,0 -2,0 -3,0 0,-1 0,-2 0,-3 -1,0 -2,0 -3,0 0,-2.666667 0,-5.333333 0,-8 -2,0 -4,0 -6,0 z m 153,0 c 0,6 0,12 0,18 -1,0 -2,0 -3,0 0,-1 0,-2 0,-3 -1,0 -2,0 -3,0 0,-1 0,-2 0,-3 -4,0 -8,0 -12,0 0,1 0,2 0,3 -1,0 -2,0 -3,0 0,1 0,2 0,3 -1,0 -2,0 -3,0 0,8 0,16 0,24 1,0 2,0 3,0 0,1 0,2 0,3 1,0 2,0 3,0 0,1 0,2 0,3 4,0 8,0 12,0 0,-1 0,-2 0,-3 1,0 2,0 3,0 0,-1 0,-2 0,-3 1,0 2,0 3,0 0,2 0,4 0,6 2,0 4,0 6,0 0,-16 0,-32 0,-48 -2,0 -4,0 -6,0 z m 32,0 c 0,2 0,4 0,6 2,0 4,0 6,0 0,-2 0,-4 0,-6 -2,0 -4,0 -6,0 z M 317,39 c 0,1 0,2 0,3 -1,0 -2,0 -3,0 0,1 0,2 0,3 -1,0 -2,0 -3,0 0,8 0,16 0,24 1,0 2,0 3,0 0,1 0,2 0,3 1,0 2,0 3,0 0,1 0,2 0,3 6,0 12,0 18,0 0,-1 0,-2 0,-3 1,0 2,0 3,0 0,-1 0,-2 0,-3 1,0 2,0 3,0 0,-8 0,-16 0,-24 -1,0 -2,0 -3,0 0,-1 0,-2 0,-3 -1,0 -2,0 -3,0 0,-1 0,-2 0,-3 -6,0 -12,0 -18,0 z m 37,0 c 0,2 0,4 0,6 2,0 4,0 6,0 0,8 0,16 0,24 -2,0 -4,0 -6,0 0,2 0,4 0,6 8,0 16,0 24,0 0,-2 0,-4 0,-6 -4,0 -8,0 -12,0 0,-6 0,-12 0,-18 2,0 4,0 6,0 0,-1 0,-2 0,-3 1,0 2,0 3,0 0,-1 0,-2 0,-3 3,0 6,0 9,0 0,-2 0,-4 0,-6 -4,0 -8,0 -12,0 0,1 0,2 0,3 -1,0 -2,0 -3,0 0,1 0,2 0,3 -1,0 -2,0 -3,0 0,-2 0,-4 0,-6 -4,0 -8,0 -12,0 z m 87,0 c 0,2 0,4 0,6 4,0 8,0 12,0 0,8 0,16 0,24 -4,0 -8,0 -12,0 0,2 0,4 0,6 10,0 20,0 30,0 0,-2 0,-4 0,-6 -4,0 -8,0 -12,0 0,-10 0,-20 0,-30 -6,0 -12,0 -18,0 z m 49,0 c 0,1 0,2 0,3 -1,0 -2,0 -3,0 0,1 0,2 0,3 -1,0 -2,0 -3,0 0,8 0,16 0,24 1,0 2,0 3,0 0,1 0,2 0,3 1,0 2,0 3,0 0,1 0,2 0,3 6,0 12,0 18,0 0,-1 0,-2 0,-3 1,0 2,0 3,0 0,-1 0,-2 0,-3 1,0 2,0 3,0 0,-2 0,-4 0,-6 -2,0 -4,0 -6,0 0,1 0,2 0,3 -1,0 -2,0 -3,0 0,1 0,2 0,3 -4,0 -8,0 -12,0 0,-1 0,-2 0,-3 -1,0 -2,0 -3,0 0,-6 0,-12 0,-18 1,0 2,0 3,0 0,-1 0,-2 0,-3 4,0 8,0 12,0 0,1 0,2 0,3 1,0 2,0 3,0 0,1 0,2 0,3 2,0 4,0 6,0 0,-2 0,-4 0,-6 -1,0 -2,0 -3,0 0,-1 0,-2 0,-3 -1,0 -2,0 -3,0 0,-1 0,-2 0,-3 -6,0 -12,0 -18,0 z m -170,6 c 4,0 8,0 12,0 0,1 0,2 0,3 1,0 2,0 3,0 0,6 0,12 0,18 -1,0 -2,0 -3,0 0,1 0,2 0,3 -4,0 -8,0 -12,0 0,-1 0,-2 0,-3 -1,0 -2,0 -3,0 0,-6 0,-12 0,-18 1,0 2,0 3,0 0,-1 0,-2 0,-3 z m 86,0 c 2,0 4,0 6,0 0,1 0,2 0,3 1,0 2,0 3,0 0,1 0,2 0,3 2,0 4,0 6,0 0,4 0,8 0,12 -2,0 -4,0 -6,0 0,1 0,2 0,3 -1,0 -2,0 -3,0 0,1 0,2 0,3 -2,0 -4,0 -6,0 0,-1 0,-2 0,-3 -1,0 -2,0 -3,0 0,-6 0,-12 0,-18 1,0 2,0 3,0 0,-1 0,-2 0,-3 z M 268,92 c 0,16 0,32 0,48 2,0 4,0 6,0 0,-6 0,-12 0,-18 5,0 10,0 15,0 0,1 0,2 0,3 1,0 2,0 3,0 0,5 0,10 0,15 2,0 4,0 6,0 0,-6 0,-12 0,-18 -1,0 -2,0 -3,0 0,-2 0,-4 0,-6 1,0 2,0 3,0 0,-6 0,-12 0,-18 -1,0 -2,0 -3,0 0,-1 0,-2 0,-3 -1,0 -2,0 -3,0 0,-1 0,-2 0,-3 -8,0 -16,0 -24,0 z m 49,0 c 0,1 0,2 0,3 -1,0 -2,0 -3,0 0,1 0,2 0,3 -1,0 -2,0 -3,0 0,4 0,8 0,12 1,0 2,0 3,0 0,1 0,2 0,3 1,0 2,0 3,0 0,1 0,2 0,3 5,0 10,0 15,0 0,1 0,2 0,3 1,0 2,0 3,0 0,4 0,8 0,12 -1,0 -2,0 -3,0 0,1 0,2 0,3 -4,0 -8,0 -12,0 0,-1 0,-2 0,-3 -1,0 -2,0 -3,0 0,-1 0,-2 0,-3 -2,0 -4,0 -6,0 0,2 0,4 0,6 1,0 2,0 3,0 0,1 0,2 0,3 1,0 2,0 3,0 0,1 0,2 0,3 6,0 12,0 18,0 0,-1 0,-2 0,-3 1,0 2,0 3,0 0,-1 0,-2 0,-3 1,0 2,0 3,0 0,-6 0,-12 0,-18 -1,0 -2,0 -3,0 0,-1 0,-2 0,-3 -1,0 -2,0 -3,0 0,-1 0,-2 0,-3 -5,0 -10,0 -15,0 0,-1 0,-2 0,-3 -1,0 -2,0 -3,0 0,-2 0,-4 0,-6 1,0 2,0 3,0 0,-1 0,-2 0,-3 4,0 8,0 12,0 0,1 0,2 0,3 1,0 2,0 3,0 0,1 0,2 0,3 2,0 4,0 6,0 0,-2 0,-4 0,-6 -1,0 -2,0 -3,0 0,-1 0,-2 0,-3 -1,0 -2,0 -3,0 0,-1 0,-2 0,-3 -6,0 -12,0 -18,0 z m 43,0 c 0,1 0,2 0,3 -1,0 -2,0 -3,0 0,1 0,2 0,3 -1,0 -2,0 -3,0 0,12 0,24 0,36 1,0 2,0 3,0 0,1 0,2 0,3 1,0 2,0 3,0 0,1 0,2 0,3 8,0 16,0 24,0 0,-2 0,-4 0,-6 -7,0 -14,0 -21,0 0,-1 0,-2 0,-3 -1,0 -2,0 -3,0 0,-5 0,-10 0,-15 5.66667,0 11.33333,0 17,0 0,-2 0,-4 0,-6 -5.66667,0 -11.33333,0 -17,0 0,-3 0,-6 0,-9 1,0 2,0 3,0 0,-1 0,-2 0,-3 7,0 14,0 21,0 0,-2 0,-4 0,-6 -8,0 -16,0 -24,0 z m -86,6 c 5,0 10,0 15,0 0,1 0,2 0,3 1,0 2,0 3,0 0,4 0,8 0,12 -1,0 -2,0 -3,0 0,1 0,2 0,3 -5,0 -10,0 -15,0 0,-6 0,-12 0,-18 z"
       id="rect815"
       inkscape:connector-curvature="0"
       style="fill:#740048;fill-opacity:1;stroke:none;stroke-opacity:1"
       transform="translate(-12.5,16)" />
  </g>
</svg>
